<svg width="225" height="72" viewBox="0 0 225 72" fill="none" xmlns="http://www.w3.org/2000/svg">
<path d="M9.34478 42.7145L17.3505 24.2755H20.0363V29.4921L14.3548 42.7145H18.5901V40.3386C18.5901 39.7601 19.5542 39.7188 20.0363 39.7704V47.0531C18.7141 47.0531 18.5212 46.6054 18.5901 46.3816V44.3156H13.5801L1.18409 72H0.719238L3.86988 62.4447C3.86988 62.4447 1.08079 61.3601 2.01049 59.0359C2.94018 56.7116 8.51838 44.3156 8.51838 44.3156H2.01049V42.7145H9.34478Z" fill="#FF9900"/>
<path d="M30.2113 42.7145L22.2056 24.2755H19.5198V29.4921L25.2013 42.7145H20.966V40.3386C20.966 39.7601 20.0019 39.7188 19.5198 39.7704V47.0531C20.8421 47.0531 21.0349 46.6054 20.966 46.3816V44.3156H25.9761L38.372 72H38.8369L35.6862 62.4447C35.6862 62.4447 38.4753 61.3601 37.5456 59.0359C36.6159 56.7116 31.0377 44.3156 31.0377 44.3156H37.5456V42.7145H30.2113Z" fill="#FF9900"/>
<path fill-rule="evenodd" clip-rule="evenodd" d="M19.83 21.5897C22.8537 21.5897 25.3049 19.1385 25.3049 16.1148C25.3049 13.0911 22.8537 10.6399 19.83 10.6399C16.8063 10.6399 14.3551 13.0911 14.3551 16.1148C14.3551 19.1385 16.8063 21.5897 19.83 21.5897ZM19.83 24.5854C24.5081 24.5854 28.3006 20.793 28.3006 16.1148C28.3006 11.4366 24.5081 7.64419 19.83 7.64419C15.1518 7.64419 11.3594 11.4366 11.3594 16.1148C11.3594 20.793 15.1518 24.5854 19.83 24.5854Z" fill="white"/>
<path d="M18.2805 0H21.3795V8.16069H18.2805V0Z" fill="white"/>
<path d="M46.7749 60V48.8H51.6229C52.6255 48.8 53.4895 48.9653 54.2149 49.296C54.9402 49.616 55.5002 50.08 55.8949 50.688C56.2895 51.296 56.4869 52.0213 56.4869 52.864C56.4869 53.696 56.2895 54.416 55.8949 55.024C55.5002 55.632 54.9402 56.1013 54.2149 56.432C53.4895 56.752 52.6255 56.912 51.6229 56.912H48.2149L49.3669 55.744V60H46.7749ZM49.3669 56.032L48.2149 54.8H51.4789C52.2789 54.8 52.8762 54.6293 53.2709 54.288C53.6655 53.9467 53.8629 53.472 53.8629 52.864C53.8629 52.2453 53.6655 51.7653 53.2709 51.424C52.8762 51.0827 52.2789 50.912 51.4789 50.912H48.2149L49.3669 49.68V56.032ZM58.9458 60V51.392H61.3298V53.824L60.9938 53.12C61.2498 52.512 61.6604 52.0533 62.2258 51.744C62.7911 51.424 63.4791 51.264 64.2898 51.264V53.568C64.1831 53.5573 64.0871 53.552 64.0018 53.552C63.9164 53.5413 63.8258 53.536 63.7298 53.536C63.0471 53.536 62.4924 53.7333 62.0658 54.128C61.6498 54.512 61.4418 55.1147 61.4418 55.936V60H58.9458ZM70.6074 60.128C69.69 60.128 68.874 59.936 68.1594 59.552C67.4554 59.168 66.8954 58.6453 66.4794 57.984C66.074 57.312 65.8714 56.5493 65.8714 55.696C65.8714 54.832 66.074 54.0693 66.4794 53.408C66.8954 52.736 67.4554 52.2133 68.1594 51.84C68.874 51.456 69.69 51.264 70.6074 51.264C71.514 51.264 72.3247 51.456 73.0394 51.84C73.754 52.2133 74.314 52.7307 74.7194 53.392C75.1247 54.0533 75.3274 54.8213 75.3274 55.696C75.3274 56.5493 75.1247 57.312 74.7194 57.984C74.314 58.6453 73.754 59.168 73.0394 59.552C72.3247 59.936 71.514 60.128 70.6074 60.128ZM70.6074 58.08C71.0234 58.08 71.3967 57.984 71.7274 57.792C72.058 57.6 72.3194 57.328 72.5114 56.976C72.7034 56.6133 72.7994 56.1867 72.7994 55.696C72.7994 55.1947 72.7034 54.768 72.5114 54.416C72.3194 54.064 72.058 53.792 71.7274 53.6C71.3967 53.408 71.0234 53.312 70.6074 53.312C70.1914 53.312 69.818 53.408 69.4874 53.6C69.1567 53.792 68.89 54.064 68.6874 54.416C68.4954 54.768 68.3994 55.1947 68.3994 55.696C68.3994 56.1867 68.4954 56.6133 68.6874 56.976C68.89 57.328 69.1567 57.6 69.4874 57.792C69.818 57.984 70.1914 58.08 70.6074 58.08ZM77.1558 63.232C76.7718 63.232 76.4038 63.1893 76.0518 63.104C75.6998 63.0293 75.4011 62.912 75.1558 62.752L75.8278 60.944C76.1158 61.1467 76.4678 61.248 76.8838 61.248C77.1931 61.248 77.4384 61.1413 77.6198 60.928C77.8118 60.7253 77.9078 60.416 77.9078 60V51.392H80.4038V59.984C80.4038 60.976 80.1211 61.7653 79.5558 62.352C78.9904 62.9387 78.1904 63.232 77.1558 63.232ZM79.1558 50.192C78.6971 50.192 78.3238 50.0587 78.0358 49.792C77.7478 49.5253 77.6038 49.1947 77.6038 48.8C77.6038 48.4053 77.7478 48.0747 78.0358 47.808C78.3238 47.5413 78.6971 47.408 79.1558 47.408C79.6144 47.408 79.9878 47.536 80.2758 47.792C80.5638 48.0373 80.7078 48.3573 80.7078 48.752C80.7078 49.168 80.5638 49.5147 80.2758 49.792C79.9984 50.0587 79.6251 50.192 79.1558 50.192ZM87.774 60.128C86.7927 60.128 85.9287 59.936 85.182 59.552C84.446 59.168 83.8753 58.6453 83.47 57.984C83.0647 57.312 82.862 56.5493 82.862 55.696C82.862 54.832 83.0593 54.0693 83.454 53.408C83.8593 52.736 84.4087 52.2133 85.102 51.84C85.7953 51.456 86.5793 51.264 87.454 51.264C88.2967 51.264 89.054 51.4453 89.726 51.808C90.4087 52.16 90.9473 52.672 91.342 53.344C91.7367 54.0053 91.934 54.8 91.934 55.728C91.934 55.824 91.9287 55.936 91.918 56.064C91.9073 56.1813 91.8967 56.2933 91.886 56.4H84.894V54.944H90.574L89.614 55.376C89.614 54.928 89.5233 54.5387 89.342 54.208C89.1607 53.8773 88.91 53.6213 88.59 53.44C88.27 53.248 87.8967 53.152 87.47 53.152C87.0433 53.152 86.6647 53.248 86.334 53.44C86.014 53.6213 85.7633 53.8827 85.582 54.224C85.4007 54.5547 85.31 54.9493 85.31 55.408V55.792C85.31 56.2613 85.4113 56.6773 85.614 57.04C85.8273 57.392 86.1207 57.664 86.494 57.856C86.878 58.0373 87.326 58.128 87.838 58.128C88.2967 58.128 88.6967 58.0587 89.038 57.92C89.39 57.7813 89.71 57.5733 89.998 57.296L91.326 58.736C90.9313 59.184 90.4353 59.5307 89.838 59.776C89.2407 60.0107 88.5527 60.128 87.774 60.128ZM98.5558 60.128C97.6278 60.128 96.8011 59.9413 96.0758 59.568C95.3504 59.184 94.7798 58.656 94.3638 57.984C93.9584 57.312 93.7558 56.5493 93.7558 55.696C93.7558 54.832 93.9584 54.0693 94.3638 53.408C94.7798 52.736 95.3504 52.2133 96.0758 51.84C96.8011 51.456 97.6278 51.264 98.5558 51.264C99.4624 51.264 100.252 51.456 100.924 51.84C101.596 52.2133 102.092 52.752 102.412 53.456L100.476 54.496C100.252 54.0907 99.9691 53.792 99.6278 53.6C99.2971 53.408 98.9344 53.312 98.5398 53.312C98.1131 53.312 97.7291 53.408 97.3878 53.6C97.0464 53.792 96.7744 54.064 96.5718 54.416C96.3798 54.768 96.2838 55.1947 96.2838 55.696C96.2838 56.1973 96.3798 56.624 96.5718 56.976C96.7744 57.328 97.0464 57.6 97.3878 57.792C97.7291 57.984 98.1131 58.08 98.5398 58.08C98.9344 58.08 99.2971 57.9893 99.6278 57.808C99.9691 57.616 100.252 57.312 100.476 56.896L102.412 57.952C102.092 58.6453 101.596 59.184 100.924 59.568C100.252 59.9413 99.4624 60.128 98.5558 60.128ZM108.294 60.128C107.281 60.128 106.491 59.872 105.926 59.36C105.361 58.8373 105.078 58.064 105.078 57.04V49.488H107.574V57.008C107.574 57.3707 107.67 57.6533 107.862 57.856C108.054 58.048 108.315 58.144 108.646 58.144C109.041 58.144 109.377 58.0373 109.654 57.824L110.326 59.584C110.07 59.7653 109.761 59.904 109.398 60C109.046 60.0853 108.678 60.128 108.294 60.128ZM103.75 53.504V51.584H109.718V53.504H103.75ZM121.714 60.192C120.818 60.192 119.96 60.0747 119.138 59.84C118.317 59.5947 117.656 59.28 117.154 58.896L118.034 56.944C118.514 57.2853 119.08 57.568 119.73 57.792C120.392 58.0053 121.058 58.112 121.73 58.112C122.242 58.112 122.653 58.064 122.962 57.968C123.282 57.8613 123.517 57.7173 123.666 57.536C123.816 57.3547 123.89 57.1467 123.89 56.912C123.89 56.6133 123.773 56.3787 123.538 56.208C123.304 56.0267 122.994 55.8827 122.61 55.776C122.226 55.6587 121.8 55.552 121.33 55.456C120.872 55.3493 120.408 55.2213 119.938 55.072C119.48 54.9227 119.058 54.7307 118.674 54.496C118.29 54.2613 117.976 53.952 117.73 53.568C117.496 53.184 117.378 52.6933 117.378 52.096C117.378 51.456 117.549 50.8747 117.89 50.352C118.242 49.8187 118.765 49.3973 119.458 49.088C120.162 48.768 121.042 48.608 122.098 48.608C122.802 48.608 123.496 48.6933 124.178 48.864C124.861 49.024 125.464 49.2693 125.986 49.6L125.186 51.568C124.664 51.2693 124.141 51.0507 123.618 50.912C123.096 50.7627 122.584 50.688 122.082 50.688C121.581 50.688 121.17 50.7467 120.85 50.864C120.53 50.9813 120.301 51.136 120.162 51.328C120.024 51.5093 119.954 51.7227 119.954 51.968C119.954 52.256 120.072 52.4907 120.306 52.672C120.541 52.8427 120.85 52.9813 121.234 53.088C121.618 53.1947 122.04 53.3013 122.498 53.408C122.968 53.5147 123.432 53.6373 123.89 53.776C124.36 53.9147 124.786 54.1013 125.17 54.336C125.554 54.5707 125.864 54.88 126.098 55.264C126.344 55.648 126.466 56.1333 126.466 56.72C126.466 57.3493 126.29 57.9253 125.938 58.448C125.586 58.9707 125.058 59.392 124.354 59.712C123.661 60.032 122.781 60.192 121.714 60.192ZM129.793 63.232C129.345 63.232 128.902 63.1627 128.465 63.024C128.028 62.8853 127.67 62.6933 127.393 62.448L128.305 60.672C128.497 60.8427 128.716 60.976 128.961 61.072C129.217 61.168 129.468 61.216 129.713 61.216C130.065 61.216 130.342 61.1307 130.545 60.96C130.758 60.8 130.95 60.528 131.121 60.144L131.569 59.088L131.761 58.816L134.849 51.392H137.249L133.361 60.528C133.084 61.2213 132.764 61.7653 132.401 62.16C132.049 62.5547 131.654 62.832 131.217 62.992C130.79 63.152 130.316 63.232 129.793 63.232ZM131.265 60.336L127.425 51.392H130.001L132.977 58.592L131.265 60.336ZM141.839 60.128C141.103 60.128 140.393 60.0427 139.711 59.872C139.039 59.6907 138.505 59.4667 138.111 59.2L138.943 57.408C139.337 57.6533 139.801 57.856 140.335 58.016C140.879 58.1653 141.412 58.24 141.935 58.24C142.511 58.24 142.916 58.1707 143.151 58.032C143.396 57.8933 143.519 57.7013 143.519 57.456C143.519 57.2533 143.423 57.104 143.231 57.008C143.049 56.9013 142.804 56.8213 142.495 56.768C142.185 56.7147 141.844 56.6613 141.471 56.608C141.108 56.5547 140.74 56.4853 140.367 56.4C139.993 56.304 139.652 56.1653 139.343 55.984C139.033 55.8027 138.783 55.5573 138.591 55.248C138.409 54.9387 138.319 54.5387 138.319 54.048C138.319 53.504 138.473 53.024 138.783 52.608C139.103 52.192 139.561 51.8667 140.159 51.632C140.756 51.3867 141.471 51.264 142.303 51.264C142.889 51.264 143.487 51.328 144.095 51.456C144.703 51.584 145.209 51.7707 145.615 52.016L144.783 53.792C144.367 53.5467 143.945 53.3813 143.519 53.296C143.103 53.2 142.697 53.152 142.303 53.152C141.748 53.152 141.343 53.2267 141.087 53.376C140.831 53.5253 140.703 53.7173 140.703 53.952C140.703 54.1653 140.793 54.3253 140.975 54.432C141.167 54.5387 141.417 54.624 141.727 54.688C142.036 54.752 142.372 54.8107 142.735 54.864C143.108 54.9067 143.481 54.976 143.855 55.072C144.228 55.168 144.564 55.3067 144.863 55.488C145.172 55.6587 145.423 55.8987 145.615 56.208C145.807 56.5067 145.903 56.9013 145.903 57.392C145.903 57.9253 145.743 58.4 145.423 58.816C145.103 59.2213 144.639 59.5413 144.031 59.776C143.433 60.0107 142.703 60.128 141.839 60.128ZM151.763 60.128C150.749 60.128 149.96 59.872 149.395 59.36C148.829 58.8373 148.547 58.064 148.547 57.04V49.488H151.043V57.008C151.043 57.3707 151.139 57.6533 151.331 57.856C151.523 58.048 151.784 58.144 152.115 58.144C152.509 58.144 152.845 58.0373 153.123 57.824L153.795 59.584C153.539 59.7653 153.229 59.904 152.867 60C152.515 60.0853 152.147 60.128 151.763 60.128ZM147.219 53.504V51.584H153.187V53.504H147.219ZM160.002 60.128C159.021 60.128 158.157 59.936 157.41 59.552C156.674 59.168 156.103 58.6453 155.698 57.984C155.293 57.312 155.09 56.5493 155.09 55.696C155.09 54.832 155.287 54.0693 155.682 53.408C156.087 52.736 156.637 52.2133 157.33 51.84C158.023 51.456 158.807 51.264 159.682 51.264C160.525 51.264 161.282 51.4453 161.954 51.808C162.637 52.16 163.175 52.672 163.57 53.344C163.965 54.0053 164.162 54.8 164.162 55.728C164.162 55.824 164.157 55.936 164.146 56.064C164.135 56.1813 164.125 56.2933 164.114 56.4H157.122V54.944H162.802L161.842 55.376C161.842 54.928 161.751 54.5387 161.57 54.208C161.389 53.8773 161.138 53.6213 160.818 53.44C160.498 53.248 160.125 53.152 159.698 53.152C159.271 53.152 158.893 53.248 158.562 53.44C158.242 53.6213 157.991 53.8827 157.81 54.224C157.629 54.5547 157.538 54.9493 157.538 55.408V55.792C157.538 56.2613 157.639 56.6773 157.842 57.04C158.055 57.392 158.349 57.664 158.722 57.856C159.106 58.0373 159.554 58.128 160.066 58.128C160.525 58.128 160.925 58.0587 161.266 57.92C161.618 57.7813 161.938 57.5733 162.226 57.296L163.554 58.736C163.159 59.184 162.663 59.5307 162.066 59.776C161.469 60.0107 160.781 60.128 160.002 60.128ZM177.648 51.264C178.331 51.264 178.933 51.4027 179.456 51.68C179.989 51.9467 180.405 52.3627 180.704 52.928C181.013 53.4827 181.168 54.1973 181.168 55.072V60H178.672V55.456C178.672 54.7627 178.528 54.2507 178.24 53.92C177.952 53.5893 177.547 53.424 177.024 53.424C176.661 53.424 176.336 53.5093 176.048 53.68C175.76 53.84 175.536 54.0853 175.376 54.416C175.216 54.7467 175.136 55.168 175.136 55.68V60H172.64V55.456C172.64 54.7627 172.496 54.2507 172.208 53.92C171.931 53.5893 171.531 53.424 171.008 53.424C170.645 53.424 170.32 53.5093 170.032 53.68C169.744 53.84 169.52 54.0853 169.36 54.416C169.2 54.7467 169.12 55.168 169.12 55.68V60H166.624V51.392H169.008V53.744L168.56 53.056C168.859 52.4693 169.28 52.0267 169.824 51.728C170.379 51.4187 171.008 51.264 171.712 51.264C172.501 51.264 173.189 51.4667 173.776 51.872C174.373 52.2667 174.768 52.8747 174.96 53.696L174.08 53.456C174.368 52.784 174.827 52.2507 175.456 51.856C176.096 51.4613 176.827 51.264 177.648 51.264ZM187.101 60.128C186.365 60.128 185.656 60.0427 184.973 59.872C184.301 59.6907 183.768 59.4667 183.373 59.2L184.205 57.408C184.6 57.6533 185.064 57.856 185.597 58.016C186.141 58.1653 186.674 58.24 187.197 58.24C187.773 58.24 188.178 58.1707 188.413 58.032C188.658 57.8933 188.781 57.7013 188.781 57.456C188.781 57.2533 188.685 57.104 188.493 57.008C188.312 56.9013 188.066 56.8213 187.757 56.768C187.448 56.7147 187.106 56.6613 186.733 56.608C186.37 56.5547 186.002 56.4853 185.629 56.4C185.256 56.304 184.914 56.1653 184.605 55.984C184.296 55.8027 184.045 55.5573 183.853 55.248C183.672 54.9387 183.581 54.5387 183.581 54.048C183.581 53.504 183.736 53.024 184.045 52.608C184.365 52.192 184.824 51.8667 185.421 51.632C186.018 51.3867 186.733 51.264 187.565 51.264C188.152 51.264 188.749 51.328 189.357 51.456C189.965 51.584 190.472 51.7707 190.877 52.016L190.045 53.792C189.629 53.5467 189.208 53.3813 188.781 53.296C188.365 53.2 187.96 53.152 187.565 53.152C187.01 53.152 186.605 53.2267 186.349 53.376C186.093 53.5253 185.965 53.7173 185.965 53.952C185.965 54.1653 186.056 54.3253 186.237 54.432C186.429 54.5387 186.68 54.624 186.989 54.688C187.298 54.752 187.634 54.8107 187.997 54.864C188.37 54.9067 188.744 54.976 189.117 55.072C189.49 55.168 189.826 55.3067 190.125 55.488C190.434 55.6587 190.685 55.8987 190.877 56.208C191.069 56.5067 191.165 56.9013 191.165 57.392C191.165 57.9253 191.005 58.4 190.685 58.816C190.365 59.2213 189.901 59.5413 189.293 59.776C188.696 60.0107 187.965 60.128 187.101 60.128Z" fill="white"/>
<path d="M58.68 42H46.584V19.644H59.04L58.68 25.152H52.74V28.5H57.888V33.252H52.74V36.96H59.04L58.68 42ZM78.3107 24.756L74.6387 42H66.1427L62.4347 24.756H68.7707L70.3187 35.808H70.7867L72.4427 24.756H78.3107ZM89.8093 29.58C89.1133 29.58 88.6453 29.904 88.4053 30.552C88.1653 31.176 88.0453 32.16 88.0453 33.504C88.0453 34.848 88.1533 35.82 88.3693 36.42C88.6093 37.02 89.0893 37.32 89.8093 37.32C90.5533 37.32 91.5133 37.188 92.6893 36.924L93.3373 41.532C91.6813 42.084 90.2053 42.36 88.9093 42.36C86.6293 42.36 84.9013 41.592 83.7253 40.056C82.5733 38.52 81.9973 36.372 81.9973 33.612C81.9973 30.852 82.5973 28.62 83.7973 26.916C84.9973 25.188 86.7373 24.324 89.0173 24.324C90.7213 24.324 92.2573 24.612 93.6253 25.188L92.9773 30.48C91.5853 29.88 90.5293 29.58 89.8093 29.58ZM97.5755 38.04V18.924H103.515V36.132C103.515 36.54 103.599 36.828 103.767 36.996C103.959 37.164 104.283 37.248 104.739 37.248L104.271 42.36H102.291C100.707 42.36 99.5195 42.036 98.7275 41.388C97.9595 40.716 97.5755 39.6 97.5755 38.04ZM114.942 42H109.002V24.936H114.942V42ZM109.47 23.568C108.966 23.136 108.714 22.44 108.714 21.48C108.714 20.52 108.966 19.812 109.47 19.356C109.974 18.9 110.802 18.672 111.954 18.672C113.106 18.672 113.934 18.9 114.438 19.356C114.942 19.812 115.194 20.52 115.194 21.48C115.194 22.416 114.942 23.112 114.438 23.568C113.934 24 113.106 24.216 111.954 24.216C110.802 24.216 109.974 24 109.47 23.568ZM135.369 42.216L132.957 42.36C131.109 42.36 129.981 41.748 129.573 40.524H129.393C128.601 41.748 127.389 42.36 125.757 42.36C123.597 42.36 122.073 41.604 121.185 40.092C120.321 38.58 119.889 36.336 119.889 33.36C119.889 30.36 120.381 28.104 121.365 26.592C122.349 25.08 123.765 24.324 125.613 24.324C126.885 24.324 127.869 24.624 128.565 25.224V18.924H134.577V36.708C134.577 37.164 134.673 37.476 134.865 37.644C135.057 37.788 135.405 37.86 135.909 37.86L135.369 42.216ZM127.197 29.4C126.693 29.4 126.357 29.712 126.189 30.336C126.021 30.936 125.937 31.812 125.937 32.964C125.937 34.092 125.949 34.86 125.973 35.268C125.997 35.676 126.045 36.096 126.117 36.528C126.213 36.936 126.345 37.224 126.513 37.392C126.705 37.536 127.005 37.608 127.413 37.608C127.845 37.608 128.289 37.5 128.745 37.284V29.832C128.241 29.544 127.725 29.4 127.197 29.4Z" fill="white"/>
</svg>
