<svg width="77" height="36" viewBox="0 0 77 36" fill="none" xmlns="http://www.w3.org/2000/svg">
<path d="M21.1031 28V23.8H22.9211C23.2971 23.8 23.6211 23.862 23.8931 23.986C24.1651 24.106 24.3751 24.28 24.5231 24.508C24.6711 24.736 24.7451 25.008 24.7451 25.324C24.7451 25.636 24.6711 25.906 24.5231 26.134C24.3751 26.362 24.1651 26.538 23.8931 26.662C23.6211 26.782 23.2971 26.842 22.9211 26.842H21.6431L22.0751 26.404V28H21.1031ZM22.0751 26.512L21.6431 26.05H22.8671C23.1671 26.05 23.3911 25.986 23.5391 25.858C23.6871 25.73 23.7611 25.552 23.7611 25.324C23.7611 25.092 23.6871 24.912 23.5391 24.784C23.3911 24.656 23.1671 24.592 22.8671 24.592H21.6431L22.0751 24.13V26.512ZM25.6672 28V24.772H26.5612V25.684L26.4352 25.42C26.5312 25.192 26.6852 25.02 26.8972 24.904C27.1092 24.784 27.3672 24.724 27.6712 24.724V25.588C27.6312 25.584 27.5952 25.582 27.5632 25.582C27.5312 25.578 27.4972 25.576 27.4612 25.576C27.2052 25.576 26.9972 25.65 26.8372 25.798C26.6812 25.942 26.6032 26.168 26.6032 26.476V28H25.6672ZM30.0403 28.048C29.6963 28.048 29.3903 27.976 29.1223 27.832C28.8583 27.688 28.6483 27.492 28.4923 27.244C28.3403 26.992 28.2643 26.706 28.2643 26.386C28.2643 26.062 28.3403 25.776 28.4923 25.528C28.6483 25.276 28.8583 25.08 29.1223 24.94C29.3903 24.796 29.6963 24.724 30.0403 24.724C30.3803 24.724 30.6843 24.796 30.9523 24.94C31.2203 25.08 31.4303 25.274 31.5823 25.522C31.7343 25.77 31.8103 26.058 31.8103 26.386C31.8103 26.706 31.7343 26.992 31.5823 27.244C31.4303 27.492 31.2203 27.688 30.9523 27.832C30.6843 27.976 30.3803 28.048 30.0403 28.048ZM30.0403 27.28C30.1963 27.28 30.3363 27.244 30.4603 27.172C30.5843 27.1 30.6823 26.998 30.7543 26.866C30.8263 26.73 30.8623 26.57 30.8623 26.386C30.8623 26.198 30.8263 26.038 30.7543 25.906C30.6823 25.774 30.5843 25.672 30.4603 25.6C30.3363 25.528 30.1963 25.492 30.0403 25.492C29.8843 25.492 29.7443 25.528 29.6203 25.6C29.4963 25.672 29.3963 25.774 29.3203 25.906C29.2483 26.038 29.2123 26.198 29.2123 26.386C29.2123 26.57 29.2483 26.73 29.3203 26.866C29.3963 26.998 29.4963 27.1 29.6203 27.172C29.7443 27.244 29.8843 27.28 30.0403 27.28ZM32.4959 29.212C32.3519 29.212 32.2139 29.196 32.0819 29.164C31.9499 29.136 31.8379 29.092 31.7459 29.032L31.9979 28.354C32.1059 28.43 32.2379 28.468 32.3939 28.468C32.5099 28.468 32.6019 28.428 32.6699 28.348C32.7419 28.272 32.7779 28.156 32.7779 28V24.772H33.7139V27.994C33.7139 28.366 33.6079 28.662 33.3959 28.882C33.1839 29.102 32.8839 29.212 32.4959 29.212ZM33.2459 24.322C33.0739 24.322 32.9339 24.272 32.8259 24.172C32.7179 24.072 32.6639 23.948 32.6639 23.8C32.6639 23.652 32.7179 23.528 32.8259 23.428C32.9339 23.328 33.0739 23.278 33.2459 23.278C33.4179 23.278 33.5579 23.326 33.6659 23.422C33.7739 23.514 33.8279 23.634 33.8279 23.782C33.8279 23.938 33.7739 24.068 33.6659 24.172C33.5619 24.272 33.4219 24.322 33.2459 24.322ZM36.4777 28.048C36.1097 28.048 35.7857 27.976 35.5057 27.832C35.2297 27.688 35.0157 27.492 34.8637 27.244C34.7117 26.992 34.6357 26.706 34.6357 26.386C34.6357 26.062 34.7097 25.776 34.8577 25.528C35.0097 25.276 35.2157 25.08 35.4757 24.94C35.7357 24.796 36.0297 24.724 36.3577 24.724C36.6737 24.724 36.9577 24.792 37.2097 24.928C37.4657 25.06 37.6677 25.252 37.8157 25.504C37.9637 25.752 38.0377 26.05 38.0377 26.398C38.0377 26.434 38.0357 26.476 38.0317 26.524C38.0277 26.568 38.0237 26.61 38.0197 26.65H35.3977V26.104H37.5277L37.1677 26.266C37.1677 26.098 37.1337 25.952 37.0657 25.828C36.9977 25.704 36.9037 25.608 36.7837 25.54C36.6637 25.468 36.5237 25.432 36.3637 25.432C36.2037 25.432 36.0617 25.468 35.9377 25.54C35.8177 25.608 35.7237 25.706 35.6557 25.834C35.5877 25.958 35.5537 26.106 35.5537 26.278V26.422C35.5537 26.598 35.5917 26.754 35.6677 26.89C35.7477 27.022 35.8577 27.124 35.9977 27.196C36.1417 27.264 36.3097 27.298 36.5017 27.298C36.6737 27.298 36.8237 27.272 36.9517 27.22C37.0837 27.168 37.2037 27.09 37.3117 26.986L37.8097 27.526C37.6617 27.694 37.4757 27.824 37.2517 27.916C37.0277 28.004 36.7697 28.048 36.4777 28.048ZM40.5209 28.048C40.1729 28.048 39.8629 27.978 39.5909 27.838C39.3189 27.694 39.1049 27.496 38.9489 27.244C38.7969 26.992 38.7209 26.706 38.7209 26.386C38.7209 26.062 38.7969 25.776 38.9489 25.528C39.1049 25.276 39.3189 25.08 39.5909 24.94C39.8629 24.796 40.1729 24.724 40.5209 24.724C40.8609 24.724 41.1569 24.796 41.4089 24.94C41.6609 25.08 41.8469 25.282 41.9669 25.546L41.2409 25.936C41.1569 25.784 41.0509 25.672 40.9229 25.6C40.7989 25.528 40.6629 25.492 40.5149 25.492C40.3549 25.492 40.2109 25.528 40.0829 25.6C39.9549 25.672 39.8529 25.774 39.7769 25.906C39.7049 26.038 39.6689 26.198 39.6689 26.386C39.6689 26.574 39.7049 26.734 39.7769 26.866C39.8529 26.998 39.9549 27.1 40.0829 27.172C40.2109 27.244 40.3549 27.28 40.5149 27.28C40.6629 27.28 40.7989 27.246 40.9229 27.178C41.0509 27.106 41.1569 26.992 41.2409 26.836L41.9669 27.232C41.8469 27.492 41.6609 27.694 41.4089 27.838C41.1569 27.978 40.8609 28.048 40.5209 28.048ZM44.1727 28.048C43.7927 28.048 43.4967 27.952 43.2847 27.76C43.0727 27.564 42.9667 27.274 42.9667 26.89V24.058H43.9027V26.878C43.9027 27.014 43.9387 27.12 44.0107 27.196C44.0827 27.268 44.1807 27.304 44.3047 27.304C44.4527 27.304 44.5787 27.264 44.6827 27.184L44.9347 27.844C44.8387 27.912 44.7227 27.964 44.5867 28C44.4547 28.032 44.3167 28.048 44.1727 28.048ZM42.4687 25.564V24.844H44.7067V25.564H42.4687ZM49.2053 28.072C48.8693 28.072 48.5473 28.028 48.2393 27.94C47.9313 27.848 47.6833 27.73 47.4953 27.586L47.8253 26.854C48.0053 26.982 48.2173 27.088 48.4613 27.172C48.7093 27.252 48.9593 27.292 49.2113 27.292C49.4033 27.292 49.5573 27.274 49.6733 27.238C49.7933 27.198 49.8813 27.144 49.9373 27.076C49.9933 27.008 50.0213 26.93 50.0213 26.842C50.0213 26.73 49.9773 26.642 49.8893 26.578C49.8013 26.51 49.6853 26.456 49.5413 26.416C49.3973 26.372 49.2373 26.332 49.0613 26.296C48.8893 26.256 48.7153 26.208 48.5393 26.152C48.3673 26.096 48.2093 26.024 48.0653 25.936C47.9213 25.848 47.8033 25.732 47.7113 25.588C47.6233 25.444 47.5793 25.26 47.5793 25.036C47.5793 24.796 47.6433 24.578 47.7713 24.382C47.9033 24.182 48.0993 24.024 48.3593 23.908C48.6233 23.788 48.9533 23.728 49.3493 23.728C49.6133 23.728 49.8733 23.76 50.1293 23.824C50.3853 23.884 50.6113 23.976 50.8073 24.1L50.5073 24.838C50.3113 24.726 50.1153 24.644 49.9193 24.592C49.7233 24.536 49.5313 24.508 49.3433 24.508C49.1553 24.508 49.0013 24.53 48.8813 24.574C48.7613 24.618 48.6753 24.676 48.6233 24.748C48.5713 24.816 48.5453 24.896 48.5453 24.988C48.5453 25.096 48.5893 25.184 48.6773 25.252C48.7653 25.316 48.8813 25.368 49.0253 25.408C49.1693 25.448 49.3273 25.488 49.4993 25.528C49.6753 25.568 49.8493 25.614 50.0213 25.666C50.1973 25.718 50.3573 25.788 50.5013 25.876C50.6453 25.964 50.7613 26.08 50.8493 26.224C50.9413 26.368 50.9873 26.55 50.9873 26.77C50.9873 27.006 50.9213 27.222 50.7893 27.418C50.6573 27.614 50.4593 27.772 50.1953 27.892C49.9353 28.012 49.6053 28.072 49.2053 28.072ZM52.2349 29.212C52.0669 29.212 51.9009 29.186 51.7369 29.134C51.5729 29.082 51.4389 29.01 51.3349 28.918L51.6769 28.252C51.7489 28.316 51.8309 28.366 51.9229 28.402C52.0189 28.438 52.1129 28.456 52.2049 28.456C52.3369 28.456 52.4409 28.424 52.5169 28.36C52.5969 28.3 52.6689 28.198 52.7329 28.054L52.9009 27.658L52.9729 27.556L54.1309 24.772H55.0309L53.5729 28.198C53.4689 28.458 53.3489 28.662 53.2129 28.81C53.0809 28.958 52.9329 29.062 52.7689 29.122C52.6089 29.182 52.4309 29.212 52.2349 29.212ZM52.7869 28.126L51.3469 24.772H52.3129L53.4289 27.472L52.7869 28.126ZM56.752 28.048C56.476 28.048 56.21 28.016 55.954 27.952C55.702 27.884 55.502 27.8 55.354 27.7L55.666 27.028C55.814 27.12 55.988 27.196 56.188 27.256C56.392 27.312 56.592 27.34 56.788 27.34C57.004 27.34 57.156 27.314 57.244 27.262C57.336 27.21 57.382 27.138 57.382 27.046C57.382 26.97 57.346 26.914 57.274 26.878C57.206 26.838 57.114 26.808 56.998 26.788C56.882 26.768 56.754 26.748 56.614 26.728C56.478 26.708 56.34 26.682 56.2 26.65C56.06 26.614 55.932 26.562 55.816 26.494C55.7 26.426 55.606 26.334 55.534 26.218C55.466 26.102 55.432 25.952 55.432 25.768C55.432 25.564 55.49 25.384 55.606 25.228C55.726 25.072 55.898 24.95 56.122 24.862C56.346 24.77 56.614 24.724 56.926 24.724C57.146 24.724 57.37 24.748 57.598 24.796C57.826 24.844 58.016 24.914 58.168 25.006L57.856 25.672C57.7 25.58 57.542 25.518 57.382 25.486C57.226 25.45 57.074 25.432 56.926 25.432C56.718 25.432 56.566 25.46 56.47 25.516C56.374 25.572 56.326 25.644 56.326 25.732C56.326 25.812 56.36 25.872 56.428 25.912C56.5 25.952 56.594 25.984 56.71 26.008C56.826 26.032 56.952 26.054 57.088 26.074C57.228 26.09 57.368 26.116 57.508 26.152C57.648 26.188 57.774 26.24 57.886 26.308C58.002 26.372 58.096 26.462 58.168 26.578C58.24 26.69 58.276 26.838 58.276 27.022C58.276 27.222 58.216 27.4 58.096 27.556C57.976 27.708 57.802 27.828 57.574 27.916C57.35 28.004 57.076 28.048 56.752 28.048ZM60.4735 28.048C60.0935 28.048 59.7975 27.952 59.5855 27.76C59.3735 27.564 59.2675 27.274 59.2675 26.89V24.058H60.2035V26.878C60.2035 27.014 60.2395 27.12 60.3115 27.196C60.3835 27.268 60.4815 27.304 60.6055 27.304C60.7535 27.304 60.8795 27.264 60.9835 27.184L61.2355 27.844C61.1395 27.912 61.0235 27.964 60.8875 28C60.7555 28.032 60.6175 28.048 60.4735 28.048ZM58.7695 25.564V24.844H61.0075V25.564H58.7695ZM63.5633 28.048C63.1953 28.048 62.8713 27.976 62.5913 27.832C62.3153 27.688 62.1013 27.492 61.9493 27.244C61.7973 26.992 61.7213 26.706 61.7213 26.386C61.7213 26.062 61.7953 25.776 61.9433 25.528C62.0953 25.276 62.3013 25.08 62.5613 24.94C62.8213 24.796 63.1153 24.724 63.4433 24.724C63.7593 24.724 64.0433 24.792 64.2953 24.928C64.5513 25.06 64.7533 25.252 64.9013 25.504C65.0493 25.752 65.1233 26.05 65.1233 26.398C65.1233 26.434 65.1213 26.476 65.1173 26.524C65.1133 26.568 65.1093 26.61 65.1053 26.65H62.4833V26.104H64.6133L64.2533 26.266C64.2533 26.098 64.2193 25.952 64.1513 25.828C64.0833 25.704 63.9893 25.608 63.8693 25.54C63.7493 25.468 63.6093 25.432 63.4493 25.432C63.2893 25.432 63.1473 25.468 63.0233 25.54C62.9033 25.608 62.8093 25.706 62.7413 25.834C62.6733 25.958 62.6393 26.106 62.6393 26.278V26.422C62.6393 26.598 62.6773 26.754 62.7533 26.89C62.8333 27.022 62.9433 27.124 63.0833 27.196C63.2273 27.264 63.3953 27.298 63.5873 27.298C63.7593 27.298 63.9093 27.272 64.0373 27.22C64.1693 27.168 64.2893 27.09 64.3973 26.986L64.8953 27.526C64.7473 27.694 64.5613 27.824 64.3373 27.916C64.1133 28.004 63.8553 28.048 63.5633 28.048ZM70.1805 24.724C70.4365 24.724 70.6625 24.776 70.8585 24.88C71.0585 24.98 71.2145 25.136 71.3265 25.348C71.4425 25.556 71.5005 25.824 71.5005 26.152V28H70.5645V26.296C70.5645 26.036 70.5105 25.844 70.4025 25.72C70.2945 25.596 70.1425 25.534 69.9465 25.534C69.8105 25.534 69.6885 25.566 69.5805 25.63C69.4725 25.69 69.3885 25.782 69.3285 25.906C69.2685 26.03 69.2385 26.188 69.2385 26.38V28H68.3025V26.296C68.3025 26.036 68.2485 25.844 68.1405 25.72C68.0365 25.596 67.8865 25.534 67.6905 25.534C67.5545 25.534 67.4325 25.566 67.3245 25.63C67.2165 25.69 67.1325 25.782 67.0725 25.906C67.0125 26.03 66.9825 26.188 66.9825 26.38V28H66.0465V24.772H66.9405V25.654L66.7725 25.396C66.8845 25.176 67.0425 25.01 67.2465 24.898C67.4545 24.782 67.6905 24.724 67.9545 24.724C68.2505 24.724 68.5085 24.8 68.7285 24.952C68.9525 25.1 69.1005 25.328 69.1725 25.636L68.8425 25.546C68.9505 25.294 69.1225 25.094 69.3585 24.946C69.5985 24.798 69.8725 24.724 70.1805 24.724ZM73.7254 28.048C73.4494 28.048 73.1834 28.016 72.9274 27.952C72.6754 27.884 72.4754 27.8 72.3274 27.7L72.6394 27.028C72.7874 27.12 72.9614 27.196 73.1614 27.256C73.3654 27.312 73.5654 27.34 73.7614 27.34C73.9774 27.34 74.1294 27.314 74.2174 27.262C74.3094 27.21 74.3554 27.138 74.3554 27.046C74.3554 26.97 74.3194 26.914 74.2474 26.878C74.1794 26.838 74.0874 26.808 73.9714 26.788C73.8554 26.768 73.7274 26.748 73.5874 26.728C73.4514 26.708 73.3134 26.682 73.1734 26.65C73.0334 26.614 72.9054 26.562 72.7894 26.494C72.6734 26.426 72.5794 26.334 72.5074 26.218C72.4394 26.102 72.4054 25.952 72.4054 25.768C72.4054 25.564 72.4634 25.384 72.5794 25.228C72.6994 25.072 72.8714 24.95 73.0954 24.862C73.3194 24.77 73.5874 24.724 73.8994 24.724C74.1194 24.724 74.3434 24.748 74.5714 24.796C74.7994 24.844 74.9894 24.914 75.1414 25.006L74.8294 25.672C74.6734 25.58 74.5154 25.518 74.3554 25.486C74.1994 25.45 74.0474 25.432 73.8994 25.432C73.6914 25.432 73.5394 25.46 73.4434 25.516C73.3474 25.572 73.2994 25.644 73.2994 25.732C73.2994 25.812 73.3334 25.872 73.4014 25.912C73.4734 25.952 73.5674 25.984 73.6834 26.008C73.7994 26.032 73.9254 26.054 74.0614 26.074C74.2014 26.09 74.3414 26.116 74.4814 26.152C74.6214 26.188 74.7474 26.24 74.8594 26.308C74.9754 26.372 75.0694 26.462 75.1414 26.578C75.2134 26.69 75.2494 26.838 75.2494 27.022C75.2494 27.222 75.1894 27.4 75.0694 27.556C74.9494 27.708 74.7754 27.828 74.5474 27.916C74.3234 28.004 74.0494 28.048 73.7254 28.048Z" fill="#333333"/>
<path d="M26.46 21H20.748V10.443H26.63L26.46 13.044H23.655V14.625H26.086V16.869H23.655V18.62H26.63L26.46 21ZM35.73 12.857L33.996 21H29.984L28.233 12.857H31.225L31.956 18.076H32.177L32.959 12.857H35.73ZM41.16 15.135C40.8313 15.135 40.6103 15.288 40.497 15.594C40.3836 15.8887 40.327 16.3533 40.327 16.988C40.327 17.6227 40.378 18.0817 40.48 18.365C40.5933 18.6483 40.82 18.79 41.16 18.79C41.5113 18.79 41.9646 18.7277 42.52 18.603L42.826 20.779C42.044 21.0397 41.347 21.17 40.735 21.17C39.6583 21.17 38.8423 20.8073 38.287 20.082C37.743 19.3567 37.471 18.3423 37.471 17.039C37.471 15.7357 37.7543 14.6817 38.321 13.877C38.8876 13.061 39.7093 12.653 40.786 12.653C41.5906 12.653 42.316 12.789 42.962 13.061L42.656 15.56C41.9986 15.2767 41.5 15.135 41.16 15.135ZM44.8273 19.13V10.103H47.6323V18.229C47.6323 18.4217 47.672 18.5577 47.7513 18.637C47.842 18.7163 47.995 18.756 48.2103 18.756L47.9893 21.17H47.0543C46.3063 21.17 45.7453 21.017 45.3713 20.711C45.0086 20.3937 44.8273 19.8667 44.8273 19.13ZM53.0281 21H50.2231V12.942H53.0281V21ZM50.4441 12.296C50.2061 12.092 50.0871 11.7633 50.0871 11.31C50.0871 10.8567 50.2061 10.5223 50.4441 10.307C50.6821 10.0917 51.0731 9.984 51.6171 9.984C52.1611 9.984 52.5521 10.0917 52.7901 10.307C53.0281 10.5223 53.1471 10.8567 53.1471 11.31C53.1471 11.752 53.0281 12.0807 52.7901 12.296C52.5521 12.5 52.1611 12.602 51.6171 12.602C51.0731 12.602 50.6821 12.5 50.4441 12.296ZM62.6742 21.102L61.5352 21.17C60.6626 21.17 60.1299 20.881 59.9372 20.303H59.8522C59.4782 20.881 58.9059 21.17 58.1352 21.17C57.1152 21.17 56.3956 20.813 55.9762 20.099C55.5682 19.385 55.3642 18.3253 55.3642 16.92C55.3642 15.5033 55.5966 14.438 56.0612 13.724C56.5259 13.01 57.1946 12.653 58.0672 12.653C58.6679 12.653 59.1326 12.7947 59.4612 13.078V10.103H62.3002V18.501C62.3002 18.7163 62.3456 18.8637 62.4362 18.943C62.5269 19.011 62.6912 19.045 62.9292 19.045L62.6742 21.102ZM58.8152 15.05C58.5772 15.05 58.4186 15.1973 58.3392 15.492C58.2599 15.7753 58.2202 16.189 58.2202 16.733C58.2202 17.2657 58.2259 17.6283 58.2372 17.821C58.2486 18.0137 58.2712 18.212 58.3052 18.416C58.3506 18.6087 58.4129 18.7447 58.4922 18.824C58.5829 18.892 58.7246 18.926 58.9172 18.926C59.1212 18.926 59.3309 18.875 59.5462 18.773V15.254C59.3082 15.118 59.0646 15.05 58.8152 15.05Z" fill="#333333"/>
<path d="M4.22111 20.9032L8.13891 11.8796H9.45327V14.4325L6.67289 20.9032H8.74553V19.7405C8.74553 19.4574 9.21736 19.4372 9.45327 19.4625V23.0264C8.8062 23.0264 8.71183 22.8073 8.74553 22.6978V21.6868H6.29375L0.227485 35.2348H0L1.54184 30.5587C1.54184 30.5587 0.176933 30.0279 0.631903 28.8905C1.08687 27.753 3.81669 21.6868 3.81669 21.6868H0.631903V20.9032H4.22111Z" fill="#FF9900"/>
<path d="M14.4327 20.9032L10.5149 11.8796H9.2005V14.4325L11.9809 20.9032H9.90824V19.7405C9.90824 19.4574 9.43642 19.4372 9.2005 19.4625V23.0264C9.84757 23.0264 9.94194 22.8073 9.90824 22.6978V21.6868H12.36L18.4263 35.2348H18.6538L17.1119 30.5587C17.1119 30.5587 18.4768 30.0279 18.0219 28.8905C17.5669 27.753 14.8371 21.6868 14.8371 21.6868H18.0219V20.9032H14.4327Z" fill="#FF9900"/>
<path fill-rule="evenodd" clip-rule="evenodd" d="M9.35231 10.5654C10.832 10.5654 12.0316 9.36587 12.0316 7.88615C12.0316 6.40643 10.832 5.20688 9.35231 5.20688C7.87259 5.20688 6.67305 6.40643 6.67305 7.88615C6.67305 9.36587 7.87259 10.5654 9.35231 10.5654ZM9.35231 12.0314C11.6417 12.0314 13.4976 10.1755 13.4976 7.88615C13.4976 5.59677 11.6417 3.74086 9.35231 3.74086C7.06294 3.74086 5.20703 5.59677 5.20703 7.88615C5.20703 10.1755 7.06294 12.0314 9.35231 12.0314Z" fill="black"/>
<path d="M8.59403 0H10.1106V3.99363H8.59403V0Z" fill="black"/>
</svg>
