<svg width="180" height="79" viewBox="0 0 180 79" fill="none" xmlns="http://www.w3.org/2000/svg">
<path d="M9.34527 49.7144L17.351 31.2754H20.0368V36.492L14.3553 49.7144H18.5906V47.3385C18.5906 46.76 19.5547 46.7187 20.0368 46.7704V54.053C18.7146 54.053 18.5217 53.6054 18.5906 53.3816V51.3156H13.5806L1.18458 78.9999H0.719727L3.87037 69.4447C3.87037 69.4447 1.08128 68.36 2.01097 66.0358C2.94067 63.7115 8.51887 51.3156 8.51887 51.3156H2.01097V49.7144H9.34527Z" fill="#FF9900"/>
<path d="M30.2118 49.7144L22.2061 31.2754H19.5203V36.492L25.2018 49.7144H20.9665V47.3385C20.9665 46.76 20.0024 46.7187 19.5203 46.7704V54.053C20.8425 54.053 21.0354 53.6054 20.9665 53.3816V51.3156H25.9765L38.3725 78.9999H38.8374L35.6867 69.4447C35.6867 69.4447 38.4758 68.36 37.5461 66.0358C36.6164 63.7115 31.0382 51.3156 31.0382 51.3156H37.5461V49.7144H30.2118Z" fill="#FF9900"/>
<path fill-rule="evenodd" clip-rule="evenodd" d="M19.83 28.5897C22.8537 28.5897 25.3049 26.1385 25.3049 23.1148C25.3049 20.0911 22.8537 17.6399 19.83 17.6399C16.8063 17.6399 14.3551 20.0911 14.3551 23.1148C14.3551 26.1385 16.8063 28.5897 19.83 28.5897ZM19.83 31.5854C24.5081 31.5854 28.3006 27.793 28.3006 23.1148C28.3006 18.4366 24.5081 14.6442 19.83 14.6442C15.1518 14.6442 11.3594 18.4366 11.3594 23.1148C11.3594 27.793 15.1518 31.5854 19.83 31.5854Z" fill="black"/>
<path d="M18.2805 7H21.3795V15.1607H18.2805V7Z" fill="black"/>
<path d="M46.328 63.0188V51.8188H51.176C52.1787 51.8188 53.0427 51.9841 53.768 52.3148C54.4933 52.6348 55.0533 53.0988 55.448 53.7068C55.8427 54.3148 56.04 55.0401 56.04 55.8828C56.04 56.7148 55.8427 57.4348 55.448 58.0428C55.0533 58.6508 54.4933 59.1201 53.768 59.4508C53.0427 59.7708 52.1787 59.9308 51.176 59.9308H47.768L48.92 58.7628V63.0188H46.328ZM48.92 59.0508L47.768 57.8188H51.032C51.832 57.8188 52.4293 57.6481 52.824 57.3068C53.2187 56.9655 53.416 56.4908 53.416 55.8828C53.416 55.2641 53.2187 54.7841 52.824 54.4428C52.4293 54.1015 51.832 53.9308 51.032 53.9308H47.768L48.92 52.6988V59.0508ZM57.6989 63.0188V54.4108H60.0829V56.8428L59.7469 56.1388C60.0029 55.5308 60.4135 55.0721 60.9789 54.7628C61.5442 54.4428 62.2322 54.2828 63.0429 54.2828V56.5868C62.9362 56.5761 62.8402 56.5708 62.7549 56.5708C62.6695 56.5601 62.5789 56.5548 62.4829 56.5548C61.8002 56.5548 61.2455 56.7521 60.8189 57.1468C60.4029 57.5308 60.1949 58.1335 60.1949 58.9548V63.0188H57.6989ZM68.5605 63.1468C67.6432 63.1468 66.8272 62.9548 66.1125 62.5708C65.4085 62.1868 64.8485 61.6641 64.4325 61.0028C64.0272 60.3308 63.8245 59.5681 63.8245 58.7148C63.8245 57.8508 64.0272 57.0881 64.4325 56.4268C64.8485 55.7548 65.4085 55.2321 66.1125 54.8588C66.8272 54.4748 67.6432 54.2828 68.5605 54.2828C69.4672 54.2828 70.2778 54.4748 70.9925 54.8588C71.7072 55.2321 72.2672 55.7495 72.6725 56.4108C73.0778 57.0721 73.2805 57.8401 73.2805 58.7148C73.2805 59.5681 73.0778 60.3308 72.6725 61.0028C72.2672 61.6641 71.7072 62.1868 70.9925 62.5708C70.2778 62.9548 69.4672 63.1468 68.5605 63.1468ZM68.5605 61.0988C68.9765 61.0988 69.3498 61.0028 69.6805 60.8108C70.0112 60.6188 70.2725 60.3468 70.4645 59.9948C70.6565 59.6321 70.7525 59.2055 70.7525 58.7148C70.7525 58.2135 70.6565 57.7868 70.4645 57.4348C70.2725 57.0828 70.0112 56.8108 69.6805 56.6188C69.3498 56.4268 68.9765 56.3308 68.5605 56.3308C68.1445 56.3308 67.7712 56.4268 67.4405 56.6188C67.1098 56.8108 66.8432 57.0828 66.6405 57.4348C66.4485 57.7868 66.3525 58.2135 66.3525 58.7148C66.3525 59.2055 66.4485 59.6321 66.6405 59.9948C66.8432 60.3468 67.1098 60.6188 67.4405 60.8108C67.7712 61.0028 68.1445 61.0988 68.5605 61.0988ZM74.3089 66.2508C73.9249 66.2508 73.5569 66.2081 73.2049 66.1228C72.8529 66.0481 72.5542 65.9308 72.3089 65.7708L72.9809 63.9628C73.2689 64.1655 73.6209 64.2668 74.0369 64.2668C74.3462 64.2668 74.5915 64.1601 74.7729 63.9468C74.9649 63.7441 75.0609 63.4348 75.0609 63.0188V54.4108H77.5569V63.0028C77.5569 63.9948 77.2742 64.7841 76.7089 65.3708C76.1435 65.9575 75.3435 66.2508 74.3089 66.2508ZM76.3089 53.2108C75.8502 53.2108 75.4769 53.0775 75.1889 52.8108C74.9009 52.5441 74.7569 52.2135 74.7569 51.8188C74.7569 51.4241 74.9009 51.0935 75.1889 50.8268C75.4769 50.5601 75.8502 50.4268 76.3089 50.4268C76.7675 50.4268 77.1409 50.5548 77.4289 50.8108C77.7169 51.0561 77.8609 51.3761 77.8609 51.7708C77.8609 52.1868 77.7169 52.5335 77.4289 52.8108C77.1515 53.0775 76.7782 53.2108 76.3089 53.2108ZM84.1271 63.1468C83.1458 63.1468 82.2818 62.9548 81.5351 62.5708C80.7991 62.1868 80.2285 61.6641 79.8231 61.0028C79.4178 60.3308 79.2151 59.5681 79.2151 58.7148C79.2151 57.8508 79.4125 57.0881 79.8071 56.4268C80.2125 55.7548 80.7618 55.2321 81.4551 54.8588C82.1485 54.4748 82.9325 54.2828 83.8071 54.2828C84.6498 54.2828 85.4071 54.4641 86.0791 54.8268C86.7618 55.1788 87.3005 55.6908 87.6951 56.3628C88.0898 57.0241 88.2871 57.8188 88.2871 58.7468C88.2871 58.8428 88.2818 58.9548 88.2711 59.0828C88.2605 59.2001 88.2498 59.3121 88.2391 59.4188H81.2471V57.9628H86.9271L85.9671 58.3948C85.9671 57.9468 85.8765 57.5575 85.6951 57.2268C85.5138 56.8961 85.2631 56.6401 84.9431 56.4588C84.6231 56.2668 84.2498 56.1708 83.8231 56.1708C83.3965 56.1708 83.0178 56.2668 82.6871 56.4588C82.3671 56.6401 82.1165 56.9015 81.9351 57.2428C81.7538 57.5735 81.6631 57.9681 81.6631 58.4268V58.8108C81.6631 59.2801 81.7645 59.6961 81.9671 60.0588C82.1805 60.4108 82.4738 60.6828 82.8471 60.8748C83.2311 61.0561 83.6791 61.1468 84.1911 61.1468C84.6498 61.1468 85.0498 61.0775 85.3911 60.9388C85.7431 60.8001 86.0631 60.5921 86.3511 60.3148L87.6791 61.7548C87.2845 62.2028 86.7885 62.5495 86.1911 62.7948C85.5938 63.0295 84.9058 63.1468 84.1271 63.1468ZM94.1089 63.1468C93.1809 63.1468 92.3542 62.9601 91.6289 62.5868C90.9035 62.2028 90.3329 61.6748 89.9169 61.0028C89.5115 60.3308 89.3089 59.5681 89.3089 58.7148C89.3089 57.8508 89.5115 57.0881 89.9169 56.4268C90.3329 55.7548 90.9035 55.2321 91.6289 54.8588C92.3542 54.4748 93.1809 54.2828 94.1089 54.2828C95.0155 54.2828 95.8049 54.4748 96.4769 54.8588C97.1489 55.2321 97.6449 55.7708 97.9649 56.4748L96.0289 57.5148C95.8049 57.1095 95.5222 56.8108 95.1809 56.6188C94.8502 56.4268 94.4875 56.3308 94.0929 56.3308C93.6662 56.3308 93.2822 56.4268 92.9409 56.6188C92.5995 56.8108 92.3275 57.0828 92.1249 57.4348C91.9329 57.7868 91.8369 58.2135 91.8369 58.7148C91.8369 59.2161 91.9329 59.6428 92.1249 59.9948C92.3275 60.3468 92.5995 60.6188 92.9409 60.8108C93.2822 61.0028 93.6662 61.0988 94.0929 61.0988C94.4875 61.0988 94.8502 61.0081 95.1809 60.8268C95.5222 60.6348 95.8049 60.3308 96.0289 59.9148L97.9649 60.9708C97.6449 61.6641 97.1489 62.2028 96.4769 62.5868C95.8049 62.9601 95.0155 63.1468 94.1089 63.1468ZM103.047 63.1468C102.034 63.1468 101.244 62.8908 100.679 62.3788C100.114 61.8561 99.831 61.0828 99.831 60.0588V52.5068H102.327V60.0268C102.327 60.3895 102.423 60.6721 102.615 60.8748C102.807 61.0668 103.068 61.1628 103.399 61.1628C103.794 61.1628 104.13 61.0561 104.407 60.8428L105.079 62.6028C104.823 62.7841 104.514 62.9228 104.151 63.0188C103.799 63.1041 103.431 63.1468 103.047 63.1468ZM98.503 56.5228V54.6028H104.471V56.5228H98.503ZM114.867 63.2108C113.971 63.2108 113.113 63.0935 112.291 62.8588C111.47 62.6135 110.809 62.2988 110.307 61.9148L111.187 59.9628C111.667 60.3041 112.233 60.5868 112.883 60.8108C113.545 61.0241 114.211 61.1308 114.883 61.1308C115.395 61.1308 115.806 61.0828 116.115 60.9868C116.435 60.8801 116.67 60.7361 116.819 60.5548C116.969 60.3735 117.043 60.1655 117.043 59.9308C117.043 59.6321 116.926 59.3975 116.691 59.2268C116.457 59.0455 116.147 58.9015 115.763 58.7948C115.379 58.6775 114.953 58.5708 114.483 58.4748C114.025 58.3681 113.561 58.2401 113.091 58.0908C112.633 57.9415 112.211 57.7495 111.827 57.5148C111.443 57.2801 111.129 56.9708 110.883 56.5868C110.649 56.2028 110.531 55.7121 110.531 55.1148C110.531 54.4748 110.702 53.8935 111.043 53.3708C111.395 52.8375 111.918 52.4161 112.611 52.1068C113.315 51.7868 114.195 51.6268 115.251 51.6268C115.955 51.6268 116.649 51.7121 117.331 51.8828C118.014 52.0428 118.617 52.2881 119.139 52.6188L118.339 54.5868C117.817 54.2881 117.294 54.0695 116.771 53.9308C116.249 53.7815 115.737 53.7068 115.235 53.7068C114.734 53.7068 114.323 53.7655 114.003 53.8828C113.683 54.0001 113.454 54.1548 113.315 54.3468C113.177 54.5281 113.107 54.7415 113.107 54.9868C113.107 55.2748 113.225 55.5095 113.459 55.6908C113.694 55.8615 114.003 56.0001 114.387 56.1068C114.771 56.2135 115.193 56.3201 115.651 56.4268C116.121 56.5335 116.585 56.6561 117.043 56.7948C117.513 56.9335 117.939 57.1201 118.323 57.3548C118.707 57.5895 119.017 57.8988 119.251 58.2828C119.497 58.6668 119.619 59.1521 119.619 59.7388C119.619 60.3681 119.443 60.9441 119.091 61.4668C118.739 61.9895 118.211 62.4108 117.507 62.7308C116.814 63.0508 115.934 63.2108 114.867 63.2108ZM122.146 66.2508C121.698 66.2508 121.256 66.1815 120.818 66.0428C120.381 65.9041 120.024 65.7121 119.746 65.4668L120.658 63.6908C120.85 63.8615 121.069 63.9948 121.314 64.0908C121.57 64.1868 121.821 64.2348 122.066 64.2348C122.418 64.2348 122.696 64.1495 122.898 63.9788C123.112 63.8188 123.304 63.5468 123.474 63.1628L123.922 62.1068L124.114 61.8348L127.202 54.4108H129.602L125.714 63.5468C125.437 64.2401 125.117 64.7841 124.754 65.1788C124.402 65.5735 124.008 65.8508 123.57 66.0108C123.144 66.1708 122.669 66.2508 122.146 66.2508ZM123.618 63.3548L119.778 54.4108H122.354L125.33 61.6108L123.618 63.3548ZM133.392 63.1468C132.656 63.1468 131.946 63.0615 131.264 62.8908C130.592 62.7095 130.058 62.4855 129.664 62.2188L130.496 60.4268C130.89 60.6721 131.354 60.8748 131.888 61.0348C132.432 61.1841 132.965 61.2588 133.488 61.2588C134.064 61.2588 134.469 61.1895 134.704 61.0508C134.949 60.9121 135.072 60.7201 135.072 60.4748C135.072 60.2721 134.976 60.1228 134.784 60.0268C134.602 59.9201 134.357 59.8401 134.048 59.7868C133.738 59.7335 133.397 59.6801 133.024 59.6268C132.661 59.5735 132.293 59.5041 131.92 59.4188C131.546 59.3228 131.205 59.1841 130.896 59.0028C130.586 58.8215 130.336 58.5761 130.144 58.2668C129.962 57.9575 129.872 57.5575 129.872 57.0668C129.872 56.5228 130.026 56.0428 130.336 55.6268C130.656 55.2108 131.114 54.8855 131.712 54.6508C132.309 54.4055 133.024 54.2828 133.856 54.2828C134.442 54.2828 135.04 54.3468 135.648 54.4748C136.256 54.6028 136.762 54.7895 137.168 55.0348L136.336 56.8108C135.92 56.5655 135.498 56.4001 135.072 56.3148C134.656 56.2188 134.25 56.1708 133.856 56.1708C133.301 56.1708 132.896 56.2455 132.64 56.3948C132.384 56.5441 132.256 56.7361 132.256 56.9708C132.256 57.1841 132.346 57.3441 132.528 57.4508C132.72 57.5575 132.97 57.6428 133.28 57.7068C133.589 57.7708 133.925 57.8295 134.288 57.8828C134.661 57.9255 135.034 57.9948 135.408 58.0908C135.781 58.1868 136.117 58.3255 136.416 58.5068C136.725 58.6775 136.976 58.9175 137.168 59.2268C137.36 59.5255 137.456 59.9201 137.456 60.4108C137.456 60.9441 137.296 61.4188 136.976 61.8348C136.656 62.2401 136.192 62.5601 135.584 62.7948C134.986 63.0295 134.256 63.1468 133.392 63.1468ZM142.516 63.1468C141.502 63.1468 140.713 62.8908 140.148 62.3788C139.582 61.8561 139.3 61.0828 139.3 60.0588V52.5068H141.796V60.0268C141.796 60.3895 141.892 60.6721 142.084 60.8748C142.276 61.0668 142.537 61.1628 142.868 61.1628C143.262 61.1628 143.598 61.0561 143.876 60.8428L144.548 62.6028C144.292 62.7841 143.982 62.9228 143.62 63.0188C143.268 63.1041 142.9 63.1468 142.516 63.1468ZM137.972 56.5228V54.6028H143.94V56.5228H137.972ZM149.955 63.1468C148.974 63.1468 148.11 62.9548 147.363 62.5708C146.627 62.1868 146.057 61.6641 145.651 61.0028C145.246 60.3308 145.043 59.5681 145.043 58.7148C145.043 57.8508 145.241 57.0881 145.635 56.4268C146.041 55.7548 146.59 55.2321 147.283 54.8588C147.977 54.4748 148.761 54.2828 149.635 54.2828C150.478 54.2828 151.235 54.4641 151.907 54.8268C152.59 55.1788 153.129 55.6908 153.523 56.3628C153.918 57.0241 154.115 57.8188 154.115 58.7468C154.115 58.8428 154.11 58.9548 154.099 59.0828C154.089 59.2001 154.078 59.3121 154.067 59.4188H147.075V57.9628H152.755L151.795 58.3948C151.795 57.9468 151.705 57.5575 151.523 57.2268C151.342 56.8961 151.091 56.6401 150.771 56.4588C150.451 56.2668 150.078 56.1708 149.651 56.1708C149.225 56.1708 148.846 56.2668 148.515 56.4588C148.195 56.6401 147.945 56.9015 147.763 57.2428C147.582 57.5735 147.491 57.9681 147.491 58.4268V58.8108C147.491 59.2801 147.593 59.6961 147.795 60.0588C148.009 60.4108 148.302 60.6828 148.675 60.8748C149.059 61.0561 149.507 61.1468 150.019 61.1468C150.478 61.1468 150.878 61.0775 151.219 60.9388C151.571 60.8001 151.891 60.5921 152.179 60.3148L153.507 61.7548C153.113 62.2028 152.617 62.5495 152.019 62.7948C151.422 63.0295 150.734 63.1468 149.955 63.1468ZM166.801 54.2828C167.484 54.2828 168.086 54.4215 168.609 54.6988C169.142 54.9655 169.558 55.3815 169.857 55.9468C170.166 56.5015 170.321 57.2161 170.321 58.0908V63.0188H167.825V58.4748C167.825 57.7815 167.681 57.2695 167.393 56.9388C167.105 56.6081 166.7 56.4428 166.177 56.4428C165.814 56.4428 165.489 56.5281 165.201 56.6988C164.913 56.8588 164.689 57.1041 164.529 57.4348C164.369 57.7655 164.289 58.1868 164.289 58.6988V63.0188H161.793V58.4748C161.793 57.7815 161.649 57.2695 161.361 56.9388C161.084 56.6081 160.684 56.4428 160.161 56.4428C159.798 56.4428 159.473 56.5281 159.185 56.6988C158.897 56.8588 158.673 57.1041 158.513 57.4348C158.353 57.7655 158.273 58.1868 158.273 58.6988V63.0188H155.777V54.4108H158.161V56.7628L157.713 56.0748C158.012 55.4881 158.433 55.0455 158.977 54.7468C159.532 54.4375 160.161 54.2828 160.865 54.2828C161.654 54.2828 162.342 54.4855 162.929 54.8908C163.526 55.2855 163.921 55.8935 164.113 56.7148L163.233 56.4748C163.521 55.8028 163.98 55.2695 164.609 54.8748C165.249 54.4801 165.98 54.2828 166.801 54.2828ZM175.454 63.1468C174.718 63.1468 174.009 63.0615 173.326 62.8908C172.654 62.7095 172.121 62.4855 171.726 62.2188L172.558 60.4268C172.953 60.6721 173.417 60.8748 173.95 61.0348C174.494 61.1841 175.028 61.2588 175.55 61.2588C176.126 61.2588 176.532 61.1895 176.766 61.0508C177.012 60.9121 177.134 60.7201 177.134 60.4748C177.134 60.2721 177.038 60.1228 176.846 60.0268C176.665 59.9201 176.42 59.8401 176.11 59.7868C175.801 59.7335 175.46 59.6801 175.086 59.6268C174.724 59.5735 174.356 59.5041 173.982 59.4188C173.609 59.3228 173.268 59.1841 172.958 59.0028C172.649 58.8215 172.398 58.5761 172.206 58.2668C172.025 57.9575 171.934 57.5575 171.934 57.0668C171.934 56.5228 172.089 56.0428 172.398 55.6268C172.718 55.2108 173.177 54.8855 173.774 54.6508C174.372 54.4055 175.086 54.2828 175.918 54.2828C176.505 54.2828 177.102 54.3468 177.71 54.4748C178.318 54.6028 178.825 54.7895 179.23 55.0348L178.398 56.8108C177.982 56.5655 177.561 56.4001 177.134 56.3148C176.718 56.2188 176.313 56.1708 175.918 56.1708C175.364 56.1708 174.958 56.2455 174.702 56.3948C174.446 56.5441 174.318 56.7361 174.318 56.9708C174.318 57.1841 174.409 57.3441 174.59 57.4508C174.782 57.5575 175.033 57.6428 175.342 57.7068C175.652 57.7708 175.988 57.8295 176.35 57.8828C176.724 57.9255 177.097 57.9948 177.47 58.0908C177.844 58.1868 178.18 58.3255 178.478 58.5068C178.788 58.6775 179.038 58.9175 179.23 59.2268C179.422 59.5255 179.518 59.9201 179.518 60.4108C179.518 60.9441 179.358 61.4188 179.038 61.8348C178.718 62.2401 178.254 62.5601 177.646 62.7948C177.049 63.0295 176.318 63.1468 175.454 63.1468Z" fill="black"/>
<path d="M58.68 49H46.584V26.644H59.04L58.68 32.152H52.74V35.5H57.888V40.252H52.74V43.96H59.04L58.68 49ZM78.3107 31.756L74.6387 49H66.1427L62.4347 31.756H68.7707L70.3187 42.808H70.7867L72.4427 31.756H78.3107ZM89.8093 36.58C89.1133 36.58 88.6453 36.904 88.4053 37.552C88.1653 38.176 88.0453 39.16 88.0453 40.504C88.0453 41.848 88.1533 42.82 88.3693 43.42C88.6093 44.02 89.0893 44.32 89.8093 44.32C90.5533 44.32 91.5133 44.188 92.6893 43.924L93.3373 48.532C91.6813 49.084 90.2053 49.36 88.9093 49.36C86.6293 49.36 84.9013 48.592 83.7253 47.056C82.5733 45.52 81.9973 43.372 81.9973 40.612C81.9973 37.852 82.5973 35.62 83.7973 33.916C84.9973 32.188 86.7373 31.324 89.0173 31.324C90.7213 31.324 92.2573 31.612 93.6253 32.188L92.9773 37.48C91.5853 36.88 90.5293 36.58 89.8093 36.58ZM97.5755 45.04V25.924H103.515V43.132C103.515 43.54 103.599 43.828 103.767 43.996C103.959 44.164 104.283 44.248 104.739 44.248L104.271 49.36H102.291C100.707 49.36 99.5195 49.036 98.7275 48.388C97.9595 47.716 97.5755 46.6 97.5755 45.04ZM114.942 49H109.002V31.936H114.942V49ZM109.47 30.568C108.966 30.136 108.714 29.44 108.714 28.48C108.714 27.52 108.966 26.812 109.47 26.356C109.974 25.9 110.802 25.672 111.954 25.672C113.106 25.672 113.934 25.9 114.438 26.356C114.942 26.812 115.194 27.52 115.194 28.48C115.194 29.416 114.942 30.112 114.438 30.568C113.934 31 113.106 31.216 111.954 31.216C110.802 31.216 109.974 31 109.47 30.568ZM135.369 49.216L132.957 49.36C131.109 49.36 129.981 48.748 129.573 47.524H129.393C128.601 48.748 127.389 49.36 125.757 49.36C123.597 49.36 122.073 48.604 121.185 47.092C120.321 45.58 119.889 43.336 119.889 40.36C119.889 37.36 120.381 35.104 121.365 33.592C122.349 32.08 123.765 31.324 125.613 31.324C126.885 31.324 127.869 31.624 128.565 32.224V25.924H134.577V43.708C134.577 44.164 134.673 44.476 134.865 44.644C135.057 44.788 135.405 44.86 135.909 44.86L135.369 49.216ZM127.197 36.4C126.693 36.4 126.357 36.712 126.189 37.336C126.021 37.936 125.937 38.812 125.937 39.964C125.937 41.092 125.949 41.86 125.973 42.268C125.997 42.676 126.045 43.096 126.117 43.528C126.213 43.936 126.345 44.224 126.513 44.392C126.705 44.536 127.005 44.608 127.413 44.608C127.845 44.608 128.289 44.5 128.745 44.284V36.832C128.241 36.544 127.725 36.4 127.197 36.4Z" fill="black"/>
</svg>
