<svg width="106" height="42" viewBox="0 0 106 42" fill="none" xmlns="http://www.w3.org/2000/svg">
<g clip-path="url(#clip0_457413_3208)">
<path d="M5.04917 25.0039L9.73553 14.2102H11.3077V17.2639L7.98192 25.0039H10.4612V23.6131C10.4612 23.2745 11.0255 23.2503 11.3077 23.2806V27.5436C10.5337 27.5436 10.4208 27.2816 10.4612 27.1506V25.9412H7.5284L0.272111 42.1469H0L1.84431 36.5535C1.84431 36.5535 0.211642 35.9186 0.755863 34.5581C1.30009 33.1975 4.56542 25.9412 4.56542 25.9412H0.755863V25.0039H5.04917Z" fill="#FF9900"/>
<path d="M17.2639 25.0039L12.5776 14.2102H11.0054V17.2639L14.3312 25.0039H11.8519V23.6131C11.8519 23.2745 11.2876 23.2503 11.0054 23.2806V27.5436C11.7794 27.5436 11.8923 27.2816 11.8519 27.1506V25.9412H14.7847L22.041 42.1469H22.3131L20.4688 36.5535C20.4688 36.5535 22.1015 35.9186 21.5572 34.5581C21.013 33.1975 17.7477 25.9412 17.7477 25.9412H21.5572V25.0039H17.2639Z" fill="#FF9900"/>
<path fill-rule="evenodd" clip-rule="evenodd" d="M11.187 12.638C12.957 12.638 14.3918 11.2032 14.3918 9.43318C14.3918 7.66318 12.957 6.22832 11.187 6.22832C9.41698 6.22832 7.98212 7.66318 7.98212 9.43318C7.98212 11.2032 9.41698 12.638 11.187 12.638ZM11.187 14.3916C13.9255 14.3916 16.1454 12.1717 16.1454 9.43318C16.1454 6.69469 13.9255 4.47471 11.187 4.47471C8.4485 4.47471 6.22852 6.69469 6.22852 9.43318C6.22852 12.1717 8.4485 14.3916 11.187 14.3916Z" fill="white"/>
<path d="M10.2799 0H12.094V4.77706H10.2799V0Z" fill="white"/>
<path d="M29.664 33V27.4H32.088C32.5893 27.4 33.0213 27.4827 33.384 27.648C33.7467 27.808 34.0267 28.04 34.224 28.344C34.4213 28.648 34.52 29.0107 34.52 29.432C34.52 29.848 34.4213 30.208 34.224 30.512C34.0267 30.816 33.7467 31.0507 33.384 31.216C33.0213 31.376 32.5893 31.456 32.088 31.456H30.384L30.96 30.872V33H29.664ZM30.96 31.016L30.384 30.4H32.016C32.416 30.4 32.7147 30.3147 32.912 30.144C33.1093 29.9733 33.208 29.736 33.208 29.432C33.208 29.1227 33.1093 28.8827 32.912 28.712C32.7147 28.5413 32.416 28.456 32.016 28.456H30.384L30.96 27.84V31.016ZM35.7494 33V28.696H36.9414V29.912L36.7734 29.56C36.9014 29.256 37.1068 29.0267 37.3894 28.872C37.6721 28.712 38.0161 28.632 38.4214 28.632V29.784C38.3681 29.7787 38.3201 29.776 38.2774 29.776C38.2348 29.7707 38.1894 29.768 38.1414 29.768C37.8001 29.768 37.5228 29.8667 37.3094 30.064C37.1014 30.256 36.9974 30.5573 36.9974 30.968V33H35.7494ZM41.5803 33.064C41.1216 33.064 40.7136 32.968 40.3563 32.776C40.0043 32.584 39.7243 32.3227 39.5163 31.992C39.3136 31.656 39.2123 31.2747 39.2123 30.848C39.2123 30.416 39.3136 30.0347 39.5163 29.704C39.7243 29.368 40.0043 29.1067 40.3563 28.92C40.7136 28.728 41.1216 28.632 41.5803 28.632C42.0336 28.632 42.4389 28.728 42.7963 28.92C43.1536 29.1067 43.4336 29.3653 43.6363 29.696C43.8389 30.0267 43.9403 30.4107 43.9403 30.848C43.9403 31.2747 43.8389 31.656 43.6363 31.992C43.4336 32.3227 43.1536 32.584 42.7963 32.776C42.4389 32.968 42.0336 33.064 41.5803 33.064ZM41.5803 32.04C41.7883 32.04 41.9749 31.992 42.1403 31.896C42.3056 31.8 42.4363 31.664 42.5323 31.488C42.6283 31.3067 42.6763 31.0933 42.6763 30.848C42.6763 30.5973 42.6283 30.384 42.5323 30.208C42.4363 30.032 42.3056 29.896 42.1403 29.8C41.9749 29.704 41.7883 29.656 41.5803 29.656C41.3723 29.656 41.1856 29.704 41.0203 29.8C40.8549 29.896 40.7216 30.032 40.6203 30.208C40.5243 30.384 40.4763 30.5973 40.4763 30.848C40.4763 31.0933 40.5243 31.3067 40.6203 31.488C40.7216 31.664 40.8549 31.8 41.0203 31.896C41.1856 31.992 41.3723 32.04 41.5803 32.04ZM44.8544 34.616C44.6624 34.616 44.4784 34.5947 44.3024 34.552C44.1264 34.5147 43.9771 34.456 43.8544 34.376L44.1904 33.472C44.3344 33.5733 44.5104 33.624 44.7184 33.624C44.8731 33.624 44.9958 33.5707 45.0864 33.464C45.1824 33.3627 45.2304 33.208 45.2304 33V28.696H46.4784V32.992C46.4784 33.488 46.3371 33.8827 46.0544 34.176C45.7718 34.4693 45.3718 34.616 44.8544 34.616ZM45.8544 28.096C45.6251 28.096 45.4384 28.0293 45.2944 27.896C45.1504 27.7627 45.0784 27.5973 45.0784 27.4C45.0784 27.2027 45.1504 27.0373 45.2944 26.904C45.4384 26.7707 45.6251 26.704 45.8544 26.704C46.0838 26.704 46.2704 26.768 46.4144 26.896C46.5584 27.0187 46.6304 27.1787 46.6304 27.376C46.6304 27.584 46.5584 27.7573 46.4144 27.896C46.2758 28.0293 46.0891 28.096 45.8544 28.096ZM50.1636 33.064C49.6729 33.064 49.2409 32.968 48.8676 32.776C48.4996 32.584 48.2142 32.3227 48.0116 31.992C47.8089 31.656 47.7076 31.2747 47.7076 30.848C47.7076 30.416 47.8062 30.0347 48.0036 29.704C48.2062 29.368 48.4809 29.1067 48.8276 28.92C49.1742 28.728 49.5662 28.632 50.0036 28.632C50.4249 28.632 50.8036 28.7227 51.1396 28.904C51.4809 29.08 51.7502 29.336 51.9476 29.672C52.1449 30.0027 52.2436 30.4 52.2436 30.864C52.2436 30.912 52.2409 30.968 52.2356 31.032C52.2302 31.0907 52.2249 31.1467 52.2196 31.2H48.7236V30.472H51.5636L51.0836 30.688C51.0836 30.464 51.0382 30.2693 50.9476 30.104C50.8569 29.9387 50.7316 29.8107 50.5716 29.72C50.4116 29.624 50.2249 29.576 50.0116 29.576C49.7982 29.576 49.6089 29.624 49.4436 29.72C49.2836 29.8107 49.1582 29.9413 49.0676 30.112C48.9769 30.2773 48.9316 30.4747 48.9316 30.704V30.896C48.9316 31.1307 48.9822 31.3387 49.0836 31.52C49.1902 31.696 49.3369 31.832 49.5236 31.928C49.7156 32.0187 49.9396 32.064 50.1956 32.064C50.4249 32.064 50.6249 32.0293 50.7956 31.96C50.9716 31.8907 51.1316 31.7867 51.2756 31.648L51.9396 32.368C51.7422 32.592 51.4942 32.7653 51.1956 32.888C50.8969 33.0053 50.5529 33.064 50.1636 33.064ZM55.5544 33.064C55.0904 33.064 54.6771 32.9707 54.3144 32.784C53.9518 32.592 53.6664 32.328 53.4584 31.992C53.2558 31.656 53.1544 31.2747 53.1544 30.848C53.1544 30.416 53.2558 30.0347 53.4584 29.704C53.6664 29.368 53.9518 29.1067 54.3144 28.92C54.6771 28.728 55.0904 28.632 55.5544 28.632C56.0078 28.632 56.4024 28.728 56.7384 28.92C57.0744 29.1067 57.3224 29.376 57.4824 29.728L56.5144 30.248C56.4024 30.0453 56.2611 29.896 56.0904 29.8C55.9251 29.704 55.7438 29.656 55.5464 29.656C55.3331 29.656 55.1411 29.704 54.9704 29.8C54.7998 29.896 54.6638 30.032 54.5624 30.208C54.4664 30.384 54.4184 30.5973 54.4184 30.848C54.4184 31.0987 54.4664 31.312 54.5624 31.488C54.6638 31.664 54.7998 31.8 54.9704 31.896C55.1411 31.992 55.3331 32.04 55.5464 32.04C55.7438 32.04 55.9251 31.9947 56.0904 31.904C56.2611 31.808 56.4024 31.656 56.5144 31.448L57.4824 31.976C57.3224 32.3227 57.0744 32.592 56.7384 32.784C56.4024 32.9707 56.0078 33.064 55.5544 33.064ZM60.4235 33.064C59.9168 33.064 59.5222 32.936 59.2395 32.68C58.9568 32.4187 58.8155 32.032 58.8155 31.52V27.744H60.0635V31.504C60.0635 31.6853 60.1115 31.8267 60.2075 31.928C60.3035 32.024 60.4342 32.072 60.5995 32.072C60.7968 32.072 60.9648 32.0187 61.1035 31.912L61.4395 32.792C61.3115 32.8827 61.1568 32.952 60.9755 33C60.7995 33.0427 60.6155 33.064 60.4235 33.064ZM58.1515 29.752V28.792H61.1355V29.752H58.1515ZM67.1337 33.096C66.6857 33.096 66.2564 33.0373 65.8457 32.92C65.435 32.7973 65.1044 32.64 64.8537 32.448L65.2937 31.472C65.5337 31.6427 65.8164 31.784 66.1417 31.896C66.4724 32.0027 66.8057 32.056 67.1417 32.056C67.3977 32.056 67.603 32.032 67.7577 31.984C67.9177 31.9307 68.035 31.8587 68.1097 31.768C68.1844 31.6773 68.2217 31.5733 68.2217 31.456C68.2217 31.3067 68.163 31.1893 68.0457 31.104C67.9284 31.0133 67.7737 30.9413 67.5817 30.888C67.3897 30.8293 67.1764 30.776 66.9417 30.728C66.7124 30.6747 66.4804 30.6107 66.2457 30.536C66.0164 30.4613 65.8057 30.3653 65.6137 30.248C65.4217 30.1307 65.2644 29.976 65.1417 29.784C65.0244 29.592 64.9657 29.3467 64.9657 29.048C64.9657 28.728 65.051 28.4373 65.2217 28.176C65.3977 27.9093 65.659 27.6987 66.0057 27.544C66.3577 27.384 66.7977 27.304 67.3257 27.304C67.6777 27.304 68.0244 27.3467 68.3657 27.432C68.707 27.512 69.0084 27.6347 69.2697 27.8L68.8697 28.784C68.6084 28.6347 68.347 28.5253 68.0857 28.456C67.8244 28.3813 67.5684 28.344 67.3177 28.344C67.067 28.344 66.8617 28.3733 66.7017 28.432C66.5417 28.4907 66.427 28.568 66.3577 28.664C66.2884 28.7547 66.2537 28.8613 66.2537 28.984C66.2537 29.128 66.3124 29.2453 66.4297 29.336C66.547 29.4213 66.7017 29.4907 66.8937 29.544C67.0857 29.5973 67.2964 29.6507 67.5257 29.704C67.7604 29.7573 67.9924 29.8187 68.2217 29.888C68.4564 29.9573 68.6697 30.0507 68.8617 30.168C69.0537 30.2853 69.2084 30.44 69.3257 30.632C69.4484 30.824 69.5097 31.0667 69.5097 31.36C69.5097 31.6747 69.4217 31.9627 69.2457 32.224C69.0697 32.4853 68.8057 32.696 68.4537 32.856C68.107 33.016 67.667 33.096 67.1337 33.096ZM71.1731 34.616C70.9491 34.616 70.7278 34.5813 70.5091 34.512C70.2905 34.4427 70.1118 34.3467 69.9731 34.224L70.4291 33.336C70.5251 33.4213 70.6345 33.488 70.7571 33.536C70.8851 33.584 71.0105 33.608 71.1331 33.608C71.3091 33.608 71.4478 33.5653 71.5491 33.48C71.6558 33.4 71.7518 33.264 71.8371 33.072L72.0611 32.544L72.1571 32.408L73.7011 28.696H74.9011L72.9571 33.264C72.8185 33.6107 72.6585 33.8827 72.4771 34.08C72.3011 34.2773 72.1038 34.416 71.8851 34.496C71.6718 34.576 71.4345 34.616 71.1731 34.616ZM71.9091 33.168L69.9891 28.696H71.2771L72.7651 32.296L71.9091 33.168ZM77.1959 33.064C76.8279 33.064 76.4732 33.0213 76.1319 32.936C75.7959 32.8453 75.5292 32.7333 75.3319 32.6L75.7479 31.704C75.9452 31.8267 76.1772 31.928 76.4439 32.008C76.7159 32.0827 76.9825 32.12 77.2439 32.12C77.5319 32.12 77.7345 32.0853 77.8519 32.016C77.9745 31.9467 78.0359 31.8507 78.0359 31.728C78.0359 31.6267 77.9879 31.552 77.8919 31.504C77.8012 31.4507 77.6785 31.4107 77.5239 31.384C77.3692 31.3573 77.1985 31.3307 77.0119 31.304C76.8305 31.2773 76.6465 31.2427 76.4599 31.2C76.2732 31.152 76.1025 31.0827 75.9479 30.992C75.7932 30.9013 75.6679 30.7787 75.5719 30.624C75.4812 30.4693 75.4359 30.2693 75.4359 30.024C75.4359 29.752 75.5132 29.512 75.6679 29.304C75.8279 29.096 76.0572 28.9333 76.3559 28.816C76.6545 28.6933 77.0119 28.632 77.4279 28.632C77.7212 28.632 78.0199 28.664 78.3239 28.728C78.6279 28.792 78.8812 28.8853 79.0839 29.008L78.6679 29.896C78.4599 29.7733 78.2492 29.6907 78.0359 29.648C77.8279 29.6 77.6252 29.576 77.4279 29.576C77.1505 29.576 76.9479 29.6133 76.8199 29.688C76.6919 29.7627 76.6279 29.8587 76.6279 29.976C76.6279 30.0827 76.6732 30.1627 76.7639 30.216C76.8599 30.2693 76.9852 30.312 77.1399 30.344C77.2945 30.376 77.4625 30.4053 77.6439 30.432C77.8305 30.4533 78.0172 30.488 78.2039 30.536C78.3905 30.584 78.5585 30.6533 78.7079 30.744C78.8625 30.8293 78.9879 30.9493 79.0839 31.104C79.1799 31.2533 79.2279 31.4507 79.2279 31.696C79.2279 31.9627 79.1479 32.2 78.9879 32.408C78.8279 32.6107 78.5959 32.7707 78.2919 32.888C77.9932 33.0053 77.6279 33.064 77.1959 33.064ZM82.1579 33.064C81.6512 33.064 81.2565 32.936 80.9739 32.68C80.6912 32.4187 80.5499 32.032 80.5499 31.52V27.744H81.7979V31.504C81.7979 31.6853 81.8459 31.8267 81.9419 31.928C82.0379 32.024 82.1685 32.072 82.3339 32.072C82.5312 32.072 82.6992 32.0187 82.8379 31.912L83.1739 32.792C83.0459 32.8827 82.8912 32.952 82.7099 33C82.5339 33.0427 82.3499 33.064 82.1579 33.064ZM79.8859 29.752V28.792H82.8699V29.752H79.8859ZM86.2776 33.064C85.787 33.064 85.355 32.968 84.9816 32.776C84.6136 32.584 84.3283 32.3227 84.1256 31.992C83.923 31.656 83.8216 31.2747 83.8216 30.848C83.8216 30.416 83.9203 30.0347 84.1176 29.704C84.3203 29.368 84.595 29.1067 84.9416 28.92C85.2883 28.728 85.6803 28.632 86.1176 28.632C86.539 28.632 86.9176 28.7227 87.2536 28.904C87.595 29.08 87.8643 29.336 88.0616 29.672C88.259 30.0027 88.3576 30.4 88.3576 30.864C88.3576 30.912 88.355 30.968 88.3496 31.032C88.3443 31.0907 88.339 31.1467 88.3336 31.2H84.8376V30.472H87.6776L87.1976 30.688C87.1976 30.464 87.1523 30.2693 87.0616 30.104C86.971 29.9387 86.8456 29.8107 86.6856 29.72C86.5256 29.624 86.339 29.576 86.1256 29.576C85.9123 29.576 85.723 29.624 85.5576 29.72C85.3976 29.8107 85.2723 29.9413 85.1816 30.112C85.091 30.2773 85.0456 30.4747 85.0456 30.704V30.896C85.0456 31.1307 85.0963 31.3387 85.1976 31.52C85.3043 31.696 85.451 31.832 85.6376 31.928C85.8296 32.0187 86.0536 32.064 86.3096 32.064C86.539 32.064 86.739 32.0293 86.9096 31.96C87.0856 31.8907 87.2456 31.7867 87.3896 31.648L88.0536 32.368C87.8563 32.592 87.6083 32.7653 87.3096 32.888C87.011 33.0053 86.667 33.064 86.2776 33.064ZM95.1005 28.632C95.4418 28.632 95.7432 28.7013 96.0045 28.84C96.2712 28.9733 96.4792 29.1813 96.6285 29.464C96.7832 29.7413 96.8605 30.0987 96.8605 30.536V33H95.6125V30.728C95.6125 30.3813 95.5405 30.1253 95.3965 29.96C95.2525 29.7947 95.0498 29.712 94.7885 29.712C94.6072 29.712 94.4445 29.7547 94.3005 29.84C94.1565 29.92 94.0445 30.0427 93.9645 30.208C93.8845 30.3733 93.8445 30.584 93.8445 30.84V33H92.5965V30.728C92.5965 30.3813 92.5245 30.1253 92.3805 29.96C92.2418 29.7947 92.0418 29.712 91.7805 29.712C91.5992 29.712 91.4365 29.7547 91.2925 29.84C91.1485 29.92 91.0365 30.0427 90.9565 30.208C90.8765 30.3733 90.8365 30.584 90.8365 30.84V33H89.5885V28.696H90.7805V29.872L90.5565 29.528C90.7058 29.2347 90.9165 29.0133 91.1885 28.864C91.4658 28.7093 91.7805 28.632 92.1325 28.632C92.5272 28.632 92.8712 28.7333 93.1645 28.936C93.4632 29.1333 93.6605 29.4373 93.7565 29.848L93.3165 29.728C93.4605 29.392 93.6898 29.1253 94.0045 28.928C94.3245 28.7307 94.6898 28.632 95.1005 28.632ZM99.8271 33.064C99.4591 33.064 99.1045 33.0213 98.7631 32.936C98.4271 32.8453 98.1605 32.7333 97.9631 32.6L98.3791 31.704C98.5765 31.8267 98.8085 31.928 99.0751 32.008C99.3471 32.0827 99.6138 32.12 99.8751 32.12C100.163 32.12 100.366 32.0853 100.483 32.016C100.606 31.9467 100.667 31.8507 100.667 31.728C100.667 31.6267 100.619 31.552 100.523 31.504C100.432 31.4507 100.31 31.4107 100.155 31.384C100 31.3573 99.8298 31.3307 99.6431 31.304C99.4618 31.2773 99.2778 31.2427 99.0911 31.2C98.9045 31.152 98.7338 31.0827 98.5791 30.992C98.4245 30.9013 98.2991 30.7787 98.2031 30.624C98.1125 30.4693 98.0671 30.2693 98.0671 30.024C98.0671 29.752 98.1445 29.512 98.2991 29.304C98.4591 29.096 98.6885 28.9333 98.9871 28.816C99.2858 28.6933 99.6431 28.632 100.059 28.632C100.352 28.632 100.651 28.664 100.955 28.728C101.259 28.792 101.512 28.8853 101.715 29.008L101.299 29.896C101.091 29.7733 100.88 29.6907 100.667 29.648C100.459 29.6 100.256 29.576 100.059 29.576C99.7818 29.576 99.5791 29.6133 99.4511 29.688C99.3231 29.7627 99.2591 29.8587 99.2591 29.976C99.2591 30.0827 99.3045 30.1627 99.3951 30.216C99.4911 30.2693 99.6165 30.312 99.7711 30.344C99.9258 30.376 100.094 30.4053 100.275 30.432C100.462 30.4533 100.648 30.488 100.835 30.536C101.022 30.584 101.19 30.6533 101.339 30.744C101.494 30.8293 101.619 30.9493 101.715 31.104C101.811 31.2533 101.859 31.4507 101.859 31.696C101.859 31.9627 101.779 32.2 101.619 32.408C101.459 32.6107 101.227 32.7707 100.923 32.888C100.624 33.0053 100.259 33.064 99.8271 33.064Z" fill="white"/>
<path d="M38.156 25H29.84V11.959H38.45L38.156 15.424H34.334V16.999H37.673V20.023H34.334V21.808H38.45L38.156 25ZM50.8597 14.941L48.4447 25H42.5437L40.1077 14.941H44.6647L45.5047 20.317H45.6517L46.5757 14.941H50.8597ZM58.0857 17.986C57.7077 17.986 57.4557 18.154 57.3297 18.49C57.2177 18.826 57.1617 19.344 57.1617 20.044C57.1617 20.744 57.2177 21.255 57.3297 21.577C57.4417 21.885 57.7077 22.039 58.1277 22.039C58.5477 22.039 59.2127 21.948 60.1227 21.766L60.5847 24.685C59.3527 25.035 58.3167 25.21 57.4767 25.21C55.9227 25.21 54.7467 24.762 53.9487 23.866C53.1647 22.97 52.7727 21.717 52.7727 20.107C52.7727 18.497 53.1787 17.195 53.9907 16.201C54.8027 15.193 55.9857 14.689 57.5397 14.689C58.6737 14.689 59.7447 14.878 60.7527 15.256L60.3117 18.574C59.2197 18.182 58.4777 17.986 58.0857 17.986ZM63.1563 22.396V11.539H67.4613V21.43C67.4613 21.808 67.7203 21.997 68.2383 21.997L67.9233 25.21H66.2013C64.1713 25.21 63.1563 24.272 63.1563 22.396ZM75.3181 25H70.9501V15.151H75.3181V25ZM70.8661 13.03C70.8661 11.84 71.6151 11.245 73.1131 11.245C74.6111 11.245 75.3601 11.84 75.3601 13.03C75.3601 13.646 75.1711 14.087 74.7931 14.353C74.4291 14.619 73.8691 14.752 73.1131 14.752C72.3571 14.752 71.7901 14.626 71.4121 14.374C71.0481 14.108 70.8661 13.66 70.8661 13.03ZM86.7059 25.21C85.6139 25.21 84.8649 24.937 84.4589 24.391H84.3749C83.7309 24.937 82.9679 25.21 82.0859 25.21C80.6299 25.21 79.5939 24.748 78.9779 23.824C78.3619 22.9 78.0539 21.591 78.0539 19.897C78.0539 18.203 78.3899 16.915 79.0619 16.033C79.7479 15.137 80.7279 14.689 82.0019 14.689C82.7299 14.689 83.3179 14.801 83.7659 15.025V11.539H87.9869V21.85C87.9869 22.032 88.0499 22.158 88.1759 22.228C88.3159 22.298 88.5539 22.333 88.8899 22.333L88.5119 25.126C87.7839 25.182 87.1819 25.21 86.7059 25.21ZM83.0939 17.881C82.8139 17.881 82.6319 18.042 82.5479 18.364C82.4779 18.686 82.4429 19.246 82.4429 20.044C82.4429 20.842 82.4779 21.402 82.5479 21.724C82.6179 22.032 82.7929 22.186 83.0729 22.186C83.3669 22.186 83.5979 22.158 83.7659 22.102V18.028C83.5279 17.93 83.3039 17.881 83.0939 17.881Z" fill="white"/>
</g>
<defs>
<clipPath id="clip0_457413_3208">
<rect width="106" height="42" fill="white"/>
</clipPath>
</defs>
</svg>
