<svg width="225" height="72" viewBox="0 0 225 72" fill="none" xmlns="http://www.w3.org/2000/svg">
<path d="M9.34478 42.7144L17.3505 24.2754H20.0363V29.492L14.3548 42.7144H18.5901V40.3385C18.5901 39.76 19.5542 39.7187 20.0363 39.7704V47.053C18.7141 47.053 18.5212 46.6054 18.5901 46.3816V44.3156H13.5801L1.18409 71.9999H0.719238L3.86988 62.4447C3.86988 62.4447 1.08079 61.36 2.01049 59.0358C2.94018 56.7115 8.51838 44.3156 8.51838 44.3156H2.01049V42.7144H9.34478Z" fill="#FF9900"/>
<path d="M30.2113 42.7144L22.2056 24.2754H19.5198V29.492L25.2013 42.7144H20.966V40.3385C20.966 39.76 20.0019 39.7187 19.5198 39.7704V47.053C20.8421 47.053 21.0349 46.6054 20.966 46.3816V44.3156H25.9761L38.372 71.9999H38.8369L35.6862 62.4447C35.6862 62.4447 38.4753 61.36 37.5456 59.0358C36.6159 56.7115 31.0377 44.3156 31.0377 44.3156H37.5456V42.7144H30.2113Z" fill="#FF9900"/>
<path fill-rule="evenodd" clip-rule="evenodd" d="M19.8297 21.5897C22.8534 21.5897 25.3046 19.1385 25.3046 16.1148C25.3046 13.0911 22.8534 10.6399 19.8297 10.6399C16.806 10.6399 14.3548 13.0911 14.3548 16.1148C14.3548 19.1385 16.806 21.5897 19.8297 21.5897ZM19.8297 24.5854C24.5079 24.5854 28.3003 20.793 28.3003 16.1148C28.3003 11.4366 24.5079 7.64419 19.8297 7.64419C15.1515 7.64419 11.3591 11.4366 11.3591 16.1148C11.3591 20.793 15.1515 24.5854 19.8297 24.5854Z" fill="white"/>
<path d="M18.2802 0H21.3792V8.16069H18.2802V0Z" fill="white"/>
<path d="M46.494 63V50.4H51.948C53.076 50.4 54.048 50.586 54.864 50.958C55.68 51.318 56.31 51.84 56.754 52.524C57.198 53.208 57.42 54.024 57.42 54.972C57.42 55.908 57.198 56.718 56.754 57.402C56.31 58.086 55.68 58.614 54.864 58.986C54.048 59.346 53.076 59.526 51.948 59.526H48.114L49.41 58.212V63H46.494ZM49.41 58.536L48.114 57.15H51.786C52.686 57.15 53.358 56.958 53.802 56.574C54.246 56.19 54.468 55.656 54.468 54.972C54.468 54.276 54.246 53.736 53.802 53.352C53.358 52.968 52.686 52.776 51.786 52.776H48.114L49.41 51.39V58.536ZM60.1862 63V53.316H62.8682V56.052L62.4902 55.26C62.7782 54.576 63.2402 54.06 63.8762 53.712C64.5122 53.352 65.2862 53.172 66.1982 53.172V55.764C66.0782 55.752 65.9702 55.746 65.8742 55.746C65.7782 55.734 65.6762 55.728 65.5682 55.728C64.8002 55.728 64.1762 55.95 63.6962 56.394C63.2282 56.826 62.9942 57.504 62.9942 58.428V63H60.1862ZM73.3056 63.144C72.2736 63.144 71.3556 62.928 70.5516 62.496C69.7596 62.064 69.1296 61.476 68.6616 60.732C68.2056 59.976 67.9776 59.118 67.9776 58.158C67.9776 57.186 68.2056 56.328 68.6616 55.584C69.1296 54.828 69.7596 54.24 70.5516 53.82C71.3556 53.388 72.2736 53.172 73.3056 53.172C74.3256 53.172 75.2376 53.388 76.0416 53.82C76.8456 54.24 77.4756 54.822 77.9316 55.566C78.3876 56.31 78.6156 57.174 78.6156 58.158C78.6156 59.118 78.3876 59.976 77.9316 60.732C77.4756 61.476 76.8456 62.064 76.0416 62.496C75.2376 62.928 74.3256 63.144 73.3056 63.144ZM73.3056 60.84C73.7736 60.84 74.1936 60.732 74.5656 60.516C74.9376 60.3 75.2316 59.994 75.4476 59.598C75.6636 59.19 75.7716 58.71 75.7716 58.158C75.7716 57.594 75.6636 57.114 75.4476 56.718C75.2316 56.322 74.9376 56.016 74.5656 55.8C74.1936 55.584 73.7736 55.476 73.3056 55.476C72.8376 55.476 72.4176 55.584 72.0456 55.8C71.6736 56.016 71.3736 56.322 71.1456 56.718C70.9296 57.114 70.8216 57.594 70.8216 58.158C70.8216 58.71 70.9296 59.19 71.1456 59.598C71.3736 59.994 71.6736 60.3 72.0456 60.516C72.4176 60.732 72.8376 60.84 73.3056 60.84ZM80.6725 66.636C80.2405 66.636 79.8265 66.588 79.4305 66.492C79.0345 66.408 78.6985 66.276 78.4225 66.096L79.1785 64.062C79.5025 64.29 79.8985 64.404 80.3665 64.404C80.7145 64.404 80.9905 64.284 81.1945 64.044C81.4105 63.816 81.5185 63.468 81.5185 63V53.316H84.3265V62.982C84.3265 64.098 84.0085 64.986 83.3725 65.646C82.7365 66.306 81.8365 66.636 80.6725 66.636ZM82.9225 51.966C82.4065 51.966 81.9865 51.816 81.6625 51.516C81.3385 51.216 81.1765 50.844 81.1765 50.4C81.1765 49.956 81.3385 49.584 81.6625 49.284C81.9865 48.984 82.4065 48.834 82.9225 48.834C83.4385 48.834 83.8585 48.978 84.1825 49.266C84.5065 49.542 84.6685 49.902 84.6685 50.346C84.6685 50.814 84.5065 51.204 84.1825 51.516C83.8705 51.816 83.4505 51.966 82.9225 51.966ZM92.618 63.144C91.514 63.144 90.542 62.928 89.702 62.496C88.874 62.064 88.232 61.476 87.776 60.732C87.32 59.976 87.092 59.118 87.092 58.158C87.092 57.186 87.314 56.328 87.758 55.584C88.214 54.828 88.832 54.24 89.612 53.82C90.392 53.388 91.274 53.172 92.258 53.172C93.206 53.172 94.058 53.376 94.814 53.784C95.582 54.18 96.188 54.756 96.632 55.512C97.076 56.256 97.298 57.15 97.298 58.194C97.298 58.302 97.292 58.428 97.28 58.572C97.268 58.704 97.256 58.83 97.244 58.95H89.378V57.312H95.768L94.688 57.798C94.688 57.294 94.586 56.856 94.382 56.484C94.178 56.112 93.896 55.824 93.536 55.62C93.176 55.404 92.756 55.296 92.276 55.296C91.796 55.296 91.37 55.404 90.998 55.62C90.638 55.824 90.356 56.118 90.152 56.502C89.948 56.874 89.846 57.318 89.846 57.834V58.266C89.846 58.794 89.96 59.262 90.188 59.67C90.428 60.066 90.758 60.372 91.178 60.588C91.61 60.792 92.114 60.894 92.69 60.894C93.206 60.894 93.656 60.816 94.04 60.66C94.436 60.504 94.796 60.27 95.12 59.958L96.614 61.578C96.17 62.082 95.612 62.472 94.94 62.748C94.268 63.012 93.494 63.144 92.618 63.144ZM104.747 63.144C103.703 63.144 102.773 62.934 101.957 62.514C101.141 62.082 100.499 61.488 100.031 60.732C99.5755 59.976 99.3475 59.118 99.3475 58.158C99.3475 57.186 99.5755 56.328 100.031 55.584C100.499 54.828 101.141 54.24 101.957 53.82C102.773 53.388 103.703 53.172 104.747 53.172C105.767 53.172 106.655 53.388 107.411 53.82C108.167 54.24 108.725 54.846 109.085 55.638L106.907 56.808C106.655 56.352 106.337 56.016 105.953 55.8C105.581 55.584 105.173 55.476 104.729 55.476C104.249 55.476 103.817 55.584 103.433 55.8C103.049 56.016 102.743 56.322 102.515 56.718C102.299 57.114 102.191 57.594 102.191 58.158C102.191 58.722 102.299 59.202 102.515 59.598C102.743 59.994 103.049 60.3 103.433 60.516C103.817 60.732 104.249 60.84 104.729 60.84C105.173 60.84 105.581 60.738 105.953 60.534C106.337 60.318 106.655 59.976 106.907 59.508L109.085 60.696C108.725 61.476 108.167 62.082 107.411 62.514C106.655 62.934 105.767 63.144 104.747 63.144ZM115.703 63.144C114.563 63.144 113.675 62.856 113.039 62.28C112.403 61.692 112.085 60.822 112.085 59.67V51.174H114.893V59.634C114.893 60.042 115.001 60.36 115.217 60.588C115.433 60.804 115.727 60.912 116.099 60.912C116.543 60.912 116.921 60.792 117.233 60.552L117.989 62.532C117.701 62.736 117.353 62.892 116.945 63C116.549 63.096 116.135 63.144 115.703 63.144ZM110.591 55.692V53.532H117.305V55.692H110.591ZM130.801 63.216C129.793 63.216 128.827 63.084 127.903 62.82C126.979 62.544 126.235 62.19 125.671 61.758L126.661 59.562C127.201 59.946 127.837 60.264 128.569 60.516C129.313 60.756 130.063 60.876 130.819 60.876C131.395 60.876 131.857 60.822 132.205 60.714C132.565 60.594 132.829 60.432 132.997 60.228C133.165 60.024 133.249 59.79 133.249 59.526C133.249 59.19 133.117 58.926 132.853 58.734C132.589 58.53 132.241 58.368 131.809 58.248C131.377 58.116 130.897 57.996 130.369 57.888C129.853 57.768 129.331 57.624 128.803 57.456C128.287 57.288 127.813 57.072 127.381 56.808C126.949 56.544 126.595 56.196 126.319 55.764C126.055 55.332 125.923 54.78 125.923 54.108C125.923 53.388 126.115 52.734 126.499 52.146C126.895 51.546 127.483 51.072 128.263 50.724C129.055 50.364 130.045 50.184 131.233 50.184C132.025 50.184 132.805 50.28 133.573 50.472C134.341 50.652 135.019 50.928 135.607 51.3L134.707 53.514C134.119 53.178 133.531 52.932 132.943 52.776C132.355 52.608 131.779 52.524 131.215 52.524C130.651 52.524 130.189 52.59 129.829 52.722C129.469 52.854 129.211 53.028 129.055 53.244C128.899 53.448 128.821 53.688 128.821 53.964C128.821 54.288 128.953 54.552 129.217 54.756C129.481 54.948 129.829 55.104 130.261 55.224C130.693 55.344 131.167 55.464 131.683 55.584C132.211 55.704 132.733 55.842 133.249 55.998C133.777 56.154 134.257 56.364 134.689 56.628C135.121 56.892 135.469 57.24 135.733 57.672C136.009 58.104 136.147 58.65 136.147 59.31C136.147 60.018 135.949 60.666 135.553 61.254C135.157 61.842 134.563 62.316 133.771 62.676C132.991 63.036 132.001 63.216 130.801 63.216ZM139.89 66.636C139.386 66.636 138.888 66.558 138.396 66.402C137.904 66.246 137.502 66.03 137.19 65.754L138.216 63.756C138.432 63.948 138.678 64.098 138.954 64.206C139.242 64.314 139.524 64.368 139.8 64.368C140.196 64.368 140.508 64.272 140.736 64.08C140.976 63.9 141.192 63.594 141.384 63.162L141.888 61.974L142.104 61.668L145.578 53.316H148.278L143.904 63.594C143.592 64.374 143.232 64.986 142.824 65.43C142.428 65.874 141.984 66.186 141.492 66.366C141.012 66.546 140.478 66.636 139.89 66.636ZM141.546 63.378L137.226 53.316H140.124L143.472 61.416L141.546 63.378ZM153.441 63.144C152.613 63.144 151.815 63.048 151.047 62.856C150.291 62.652 149.691 62.4 149.247 62.1L150.183 60.084C150.627 60.36 151.149 60.588 151.749 60.768C152.361 60.936 152.961 61.02 153.549 61.02C154.197 61.02 154.653 60.942 154.917 60.786C155.193 60.63 155.331 60.414 155.331 60.138C155.331 59.91 155.223 59.742 155.007 59.634C154.803 59.514 154.527 59.424 154.179 59.364C153.831 59.304 153.447 59.244 153.027 59.184C152.619 59.124 152.205 59.046 151.785 58.95C151.365 58.842 150.981 58.686 150.633 58.482C150.285 58.278 150.003 58.002 149.787 57.654C149.583 57.306 149.481 56.856 149.481 56.304C149.481 55.692 149.655 55.152 150.003 54.684C150.363 54.216 150.879 53.85 151.551 53.586C152.223 53.31 153.027 53.172 153.963 53.172C154.623 53.172 155.295 53.244 155.979 53.388C156.663 53.532 157.233 53.742 157.689 54.018L156.753 56.016C156.285 55.74 155.811 55.554 155.331 55.458C154.863 55.35 154.407 55.296 153.963 55.296C153.339 55.296 152.883 55.38 152.595 55.548C152.307 55.716 152.163 55.932 152.163 56.196C152.163 56.436 152.265 56.616 152.469 56.736C152.685 56.856 152.967 56.952 153.315 57.024C153.663 57.096 154.041 57.162 154.449 57.222C154.869 57.27 155.289 57.348 155.709 57.456C156.129 57.564 156.507 57.72 156.843 57.924C157.191 58.116 157.473 58.386 157.689 58.734C157.905 59.07 158.013 59.514 158.013 60.066C158.013 60.666 157.833 61.2 157.473 61.668C157.113 62.124 156.591 62.484 155.907 62.748C155.235 63.012 154.413 63.144 153.441 63.144ZM164.605 63.144C163.465 63.144 162.577 62.856 161.941 62.28C161.305 61.692 160.987 60.822 160.987 59.67V51.174H163.795V59.634C163.795 60.042 163.903 60.36 164.119 60.588C164.335 60.804 164.629 60.912 165.001 60.912C165.445 60.912 165.823 60.792 166.135 60.552L166.891 62.532C166.603 62.736 166.255 62.892 165.847 63C165.451 63.096 165.037 63.144 164.605 63.144ZM159.493 55.692V53.532H166.207V55.692H159.493ZM173.875 63.144C172.771 63.144 171.799 62.928 170.959 62.496C170.131 62.064 169.489 61.476 169.033 60.732C168.577 59.976 168.349 59.118 168.349 58.158C168.349 57.186 168.571 56.328 169.015 55.584C169.471 54.828 170.089 54.24 170.869 53.82C171.649 53.388 172.531 53.172 173.515 53.172C174.463 53.172 175.315 53.376 176.071 53.784C176.839 54.18 177.445 54.756 177.889 55.512C178.333 56.256 178.555 57.15 178.555 58.194C178.555 58.302 178.549 58.428 178.537 58.572C178.525 58.704 178.513 58.83 178.501 58.95H170.635V57.312H177.025L175.945 57.798C175.945 57.294 175.843 56.856 175.639 56.484C175.435 56.112 175.153 55.824 174.793 55.62C174.433 55.404 174.013 55.296 173.533 55.296C173.053 55.296 172.627 55.404 172.255 55.62C171.895 55.824 171.613 56.118 171.409 56.502C171.205 56.874 171.103 57.318 171.103 57.834V58.266C171.103 58.794 171.217 59.262 171.445 59.67C171.685 60.066 172.015 60.372 172.435 60.588C172.867 60.792 173.371 60.894 173.947 60.894C174.463 60.894 174.913 60.816 175.297 60.66C175.693 60.504 176.053 60.27 176.377 59.958L177.871 61.578C177.427 62.082 176.869 62.472 176.197 62.748C175.525 63.012 174.751 63.144 173.875 63.144ZM193.726 53.172C194.494 53.172 195.172 53.328 195.76 53.64C196.36 53.94 196.828 54.408 197.164 55.044C197.512 55.668 197.686 56.472 197.686 57.456V63H194.878V57.888C194.878 57.108 194.716 56.532 194.392 56.16C194.068 55.788 193.612 55.602 193.024 55.602C192.616 55.602 192.25 55.698 191.926 55.89C191.602 56.07 191.35 56.346 191.17 56.718C190.99 57.09 190.9 57.564 190.9 58.14V63H188.092V57.888C188.092 57.108 187.93 56.532 187.606 56.16C187.294 55.788 186.844 55.602 186.256 55.602C185.848 55.602 185.482 55.698 185.158 55.89C184.834 56.07 184.582 56.346 184.402 56.718C184.222 57.09 184.132 57.564 184.132 58.14V63H181.324V53.316H184.006V55.962L183.502 55.188C183.838 54.528 184.312 54.03 184.924 53.694C185.548 53.346 186.256 53.172 187.048 53.172C187.936 53.172 188.71 53.4 189.37 53.856C190.042 54.3 190.486 54.984 190.702 55.908L189.712 55.638C190.036 54.882 190.552 54.282 191.26 53.838C191.98 53.394 192.802 53.172 193.726 53.172ZM204.361 63.144C203.533 63.144 202.735 63.048 201.967 62.856C201.211 62.652 200.611 62.4 200.167 62.1L201.103 60.084C201.547 60.36 202.069 60.588 202.669 60.768C203.281 60.936 203.881 61.02 204.469 61.02C205.117 61.02 205.573 60.942 205.837 60.786C206.113 60.63 206.251 60.414 206.251 60.138C206.251 59.91 206.143 59.742 205.927 59.634C205.723 59.514 205.447 59.424 205.099 59.364C204.751 59.304 204.367 59.244 203.947 59.184C203.539 59.124 203.125 59.046 202.705 58.95C202.285 58.842 201.901 58.686 201.553 58.482C201.205 58.278 200.923 58.002 200.707 57.654C200.503 57.306 200.401 56.856 200.401 56.304C200.401 55.692 200.575 55.152 200.923 54.684C201.283 54.216 201.799 53.85 202.471 53.586C203.143 53.31 203.947 53.172 204.883 53.172C205.543 53.172 206.215 53.244 206.899 53.388C207.583 53.532 208.153 53.742 208.609 54.018L207.673 56.016C207.205 55.74 206.731 55.554 206.251 55.458C205.783 55.35 205.327 55.296 204.883 55.296C204.259 55.296 203.803 55.38 203.515 55.548C203.227 55.716 203.083 55.932 203.083 56.196C203.083 56.436 203.185 56.616 203.389 56.736C203.605 56.856 203.887 56.952 204.235 57.024C204.583 57.096 204.961 57.162 205.369 57.222C205.789 57.27 206.209 57.348 206.629 57.456C207.049 57.564 207.427 57.72 207.763 57.924C208.111 58.116 208.393 58.386 208.609 58.734C208.825 59.07 208.933 59.514 208.933 60.066C208.933 60.666 208.753 61.2 208.393 61.668C208.033 62.124 207.511 62.484 206.827 62.748C206.155 63.012 205.333 63.144 204.361 63.144Z" fill="white"/>
<path d="M60.58 45H46.804V19.539H60.99L60.58 25.812H53.815V29.625H59.678V35.037H53.815V39.26H60.99L60.58 45ZM82.9372 25.361L78.7552 45H69.0792L64.8562 25.361H72.0722L73.8352 37.948H74.3682L76.2542 25.361H82.9372ZM96.0328 30.855C95.2402 30.855 94.7072 31.224 94.4338 31.962C94.1605 32.6727 94.0238 33.7933 94.0238 35.324C94.0238 36.8547 94.1468 37.9617 94.3928 38.645C94.6662 39.3283 95.2128 39.67 96.0328 39.67C96.8802 39.67 97.9735 39.5197 99.3128 39.219L100.051 44.467C98.1648 45.0957 96.4838 45.41 95.0078 45.41C92.4112 45.41 90.4432 44.5353 89.1038 42.786C87.7918 41.0367 87.1358 38.5903 87.1358 35.447C87.1358 32.3037 87.8192 29.7617 89.1858 27.821C90.5525 25.853 92.5342 24.869 95.1308 24.869C97.0715 24.869 98.8208 25.197 100.379 25.853L99.6408 31.88C98.0555 31.1967 96.8528 30.855 96.0328 30.855ZM104.878 40.49V18.719H111.643V38.317C111.643 38.7817 111.738 39.1097 111.93 39.301C112.148 39.4923 112.517 39.588 113.037 39.588L112.504 45.41H110.249C108.445 45.41 107.092 45.041 106.19 44.303C105.315 43.5377 104.878 42.2667 104.878 40.49ZM124.656 45H117.891V25.566H124.656V45ZM118.424 24.008C117.85 23.516 117.563 22.7233 117.563 21.63C117.563 20.5367 117.85 19.7303 118.424 19.211C118.998 18.6917 119.941 18.432 121.253 18.432C122.565 18.432 123.508 18.6917 124.082 19.211C124.656 19.7303 124.943 20.5367 124.943 21.63C124.943 22.696 124.656 23.4887 124.082 24.008C123.508 24.5 122.565 24.746 121.253 24.746C119.941 24.746 118.998 24.5 118.424 24.008ZM147.92 45.246L145.173 45.41C143.069 45.41 141.784 44.713 141.319 43.319H141.114C140.212 44.713 138.832 45.41 136.973 45.41C134.513 45.41 132.778 44.549 131.766 42.827C130.782 41.105 130.29 38.5493 130.29 35.16C130.29 31.7433 130.851 29.174 131.971 27.452C133.092 25.73 134.705 24.869 136.809 24.869C138.258 24.869 139.379 25.2107 140.171 25.894V18.719H147.018V38.973C147.018 39.4923 147.128 39.8477 147.346 40.039C147.565 40.203 147.961 40.285 148.535 40.285L147.92 45.246ZM138.613 30.65C138.039 30.65 137.657 31.0053 137.465 31.716C137.274 32.3993 137.178 33.397 137.178 34.709C137.178 35.9937 137.192 36.8683 137.219 37.333C137.247 37.7977 137.301 38.276 137.383 38.768C137.493 39.2327 137.643 39.5607 137.834 39.752C138.053 39.916 138.395 39.998 138.859 39.998C139.351 39.998 139.857 39.875 140.376 39.629V31.142C139.802 30.814 139.215 30.65 138.613 30.65Z" fill="white"/>
</svg>
